<?xml version="1.0" encoding="utf-8"?>

<!DOCTYPE svg PUBLIC "-//W3C//DTD SVG 1.1//EN" "http://www.w3.org/Graphics/SVG/1.1/DTD/svg11.dtd">
<svg fill="currentColor" version="1.1" id="Layer_1" xmlns="http://www.w3.org/2000/svg" xmlns:xlink="http://www.w3.org/1999/xlink" x="0px" y="0px"
	 viewBox="0 0 1734.895 1618.8842" enable-background="new 0 0 1734.895 1618.8842" xml:space="preserve">
<g>
	<path d="M916.2031,784.8441c5.7766,6.8604,17.9761-0.7037,26.3514-27.7475l-0.0005-0.0012
		c-25.0283,3.897-30.7019,15.9928-28.9068,24.0389c9.6053-1.8325,9.6407-10.1573,13.7802-13.1749
		C927.5275,773.495,925.7661,780.6723,916.2031,784.8441z"/>
	<path d="M810.6777,798.8173c3.053-8.4327-9.5975-15.2159-37.2057-8.9472l-0.0008,0.001
		c15.889,19.7267,29.2011,18.5922,35.2717,13.0146c-6.3896-7.4022-13.6168-3.2705-18.2999-5.3466
		C795.1869,794.6846,802.2833,792.6213,810.6777,798.8173z"/>
	<path d="M875.5415,883.2183c-8.8295,1.5724-8.3787,15.9197,10.8543,36.6948l0.0013,0.0002
		c9.1393-23.6237,1.5007-34.585-6.3649-37.0535c-3.2158,9.2346,3.9761,13.4278,4.5197,18.5215
		C879.7079,898.7001,874.3729,893.5861,875.5415,883.2183z"/>
	<path d="M924.2421,798.7488c-3.0632-8.4291,9.5792-15.2275,37.1949-8.9921l0.0008,0.001
		c-15.8652,19.7458-29.1787,18.6274-35.256,13.0571c6.3807-7.4099,13.6129-3.2869,18.2935-5.3687
		C939.728,794.5975,932.6291,792.5428,924.2421,798.7488z"/>
	<path d="M818.7,784.903c-5.7682,6.8672-17.977-0.6821-26.3848-27.7158l0.0004-0.0012c25.033,3.8668,30.7211,15.9558,28.9358,24.004
		c-9.6075-1.8209-9.653-10.1457-13.7961-13.1583C807.3619,773.5674,809.132,780.7426,818.7,784.903z"/>
	<path d="M859.4802,883.228c8.8314,1.5618,8.3979,15.9095-10.8101,36.7078l-0.0012,0.0002
		c-9.1678-23.6126-1.5425-34.5832,6.3201-37.0612c3.2269,9.2308-3.9599,13.4326-4.4973,18.5269
		C855.3324,898.7148,860.6613,893.5944,859.4802,883.228z"/>
	<path d="M867.4368,760.5256c7.274,20.4993,19.0229,23.6101,26.3032,20.7773c-3.0678-9.0202-11.2585-7.7634-14.7715-11.3052
		c5.4299-0.9555,12.72-0.3624,18.0826,8.2541c5.9022-6.5671-2.8121-17.0088-29.6161-21.0555
		c-26.7991,4.079-35.501,14.5312-29.5908,21.0912c5.3522-8.6229,12.6415-9.2249,18.0726-8.2759
		c-3.5087,3.5461-11.701,2.2991-14.7579,11.3231C848.4424,784.1586,860.1876,781.0336,867.4368,760.5256z"/>
	<path d="M920.985,853.1448c-21.3899-3.9502-29.9584,4.6693-31.1453,12.3905c9.3456,1.8533,12.3526-5.8685,17.1764-7.1399
		c-1.8875,5.1802-6.0462,11.197-16.1895,11.5329c2.7361,8.395,16.1361,6.069,33.0427-15.1206
		c9.867-25.2482,5.1661-38.0103-3.4702-36.1719c4.7916,8.9465,1.6682,15.5602-1.8691,19.7892
		c-1.3166-4.8116,3.8594-11.2829-2.4271-18.4422C910.0155,824.8787,906.8492,836.6127,920.985,853.1448z"/>
	<path d="M814.0004,853.2094c14.1159-16.5491,10.9355-28.2794,4.8422-33.1678c-6.2778,7.1669-1.0941,13.6318-2.4048,18.4451
		c-3.5424-4.2247-6.6738-10.8347-1.893-19.787c-8.6384-1.8279-13.324,10.9398-3.4265,36.1761
		c16.9321,21.1693,30.3348,23.4791,33.0609,15.0807c-10.1437-0.3237-14.3097-6.3354-16.2034-11.5134
		c4.8253,1.2656,7.8416,8.9838,17.185,7.1192C843.9644,857.8425,835.3855,849.2333,814.0004,853.2094z"/>
	<path d="M1012.3489,492.4424c2.906,4.4204,10.4997,6.2762,21.881-6.3993c-15.3171-6.6144-23.3979-2.8255-22.5549,3.3725
		c5.5484-3.7113,9.4359-1.692,11.8719,0.6997C1020.6035,491.2109,1016.8677,487.7201,1012.3489,492.4424z"/>
	<path d="M509.3775,861.7534c2.3752-4.7269,0.1855-12.2311-16.4825-15.7499c1.9303,16.5723,9.252,21.676,14.1981,17.8468
		c-5.9883-2.9493-6.1833-7.3256-5.3299-10.6312C504.1837,855.2205,503.0284,860.2012,509.3775,861.7534z"/>
	<path d="M1080.6959,1112.684c-5.2813,0.3065-10.6852,5.955-5.3986,22.1492c13.3868-9.9578,14.1459-18.8505,8.3567-21.2194
		c0.4399,6.6608-3.2526,9.0177-6.542,9.9315C1077.6351,1120.4484,1082.5262,1118.9585,1080.6959,1112.684z"/>
	<path d="M1225.618,861.3215c-2.3809-4.7241-0.2002-12.2308,16.4635-15.7698c-1.9104,16.5746-9.226,21.6871-14.1766,17.864
		c5.9847-2.9566,6.1744-7.3331,5.3171-10.6376C1230.804,854.7824,1231.9652,859.7617,1225.618,861.3215z"/>
	<path d="M722.2016,492.6173c-2.9007,4.424-10.4921,6.2888-21.8887-6.3729c15.3091-6.6329,23.3945-2.8538,22.5589,3.3453
		c-5.5529-3.7047-9.4379-1.6807-11.871,0.7141C713.9456,491.3958,717.6772,487.9005,722.2016,492.6173z"/>
	<path d="M654.6027,1112.9409c5.2816,0.3,10.6923,5.942,5.4253,22.1426c-13.3989-9.9417-14.1687-18.8334-8.3823-21.2092
		c-0.4319,6.6613,3.2634,9.0138,6.5539,9.9236C657.6727,1120.7015,652.7799,1119.2177,654.6027,1112.9409z"/>
	<polygon points="1034.23,486.0431 1034.23,486.0431 1034.23,486.0432 	"/>
	<polygon points="492.895,846.0035 492.895,846.0035 492.895,846.0034 	"/>
	<polygon points="1075.2974,1134.8331 1075.2974,1134.8331 1075.2972,1134.8331 	"/>
	<polygon points="1242.0815,845.5518 1242.0815,845.5518 1242.0815,845.5517 	"/>
	<polygon points="700.3129,486.2444 700.3129,486.2445 700.3128,486.2445 	"/>
	<polygon points="660.0279,1135.0836 660.028,1135.0835 660.028,1135.0836 	"/>
	<path d="M1191.3302,635.0544c-12.6193-1.3121-20.1338,2.7523-21.0859,9.9785c1.8346-0.3772,3.5853-0.6492,5.256-0.8264
		c-0.9872,1.3595-2.0963,2.741-3.3386,4.1427C1178.8992,651.1296,1186.1709,646.6453,1191.3302,635.0544z"/>
	<path d="M867.6996,1196.3802c7.446-10.2726,7.6833-18.8125,1.9014-23.2501c-0.5906,1.7773-1.2305,3.4294-1.9124,4.965
		c-0.6838-1.5347-1.3256-3.186-1.9184-4.9626C859.9936,1177.577,860.2413,1186.1167,867.6996,1196.3802z"/>
	<path d="M543.3925,635.4451c5.1733,11.5847,12.4504,16.0602,19.1846,13.2717c-1.244-1.4002-2.3548-2.7804-3.3436-4.1387
		c1.671,0.1752,3.4219,0.445,5.257,0.82C563.5295,638.173,556.0101,634.1177,543.3925,635.4451z"/>
	<path d="M1174.7252,622.1345c12.5863-4.6758,24.0309-21.9515,6.9989-55.9086h-0.0001
		c-29.4357,33.3494-28.8678,54.7396-14.3452,55.9501c-2.8453-15.2663,5.3792-23.5532,13.0249-28.1592
		C1179.9811,601.6602,1168.6489,608.8143,1174.7252,622.1345z"/>
	<path d="M540.5059,656.2853c-10.3425-8.5621-31.026-9.8356-51.9176,21.8931v0.0001c43.5992,8.8174,61.8397-2.3696,55.6268-15.5518
		c-11.7983,10.0973-23.0872,7.1181-30.899,2.7998C520.1468,661.9708,532.0084,668.2076,540.5059,656.2853z"/>
	<path d="M887.1911,1188.46c-2.2437,13.2379,6.9952,31.7871,44.9188,34.0154h0.0001c-14.1635-42.1667-32.972-52.37-41.2816-40.3983
		c14.6437,5.1689,17.7081,16.4349,17.8742,25.3594C902.2944,1203.2488,901.7649,1189.8578,887.1911,1188.46z"/>
	<path d="M1194.2418,655.8912c10.3323-8.5745,31.0142-9.873,51.944,21.8305v0.0001c-43.5885,8.87-61.8425-2.295-55.6455-15.4847
		c11.8105,10.0831,23.0958,7.0903,30.9025,2.7626C1214.6078,661.5521,1202.7537,667.8032,1194.2418,655.8912z"/>
	<path d="M559.9818,622.5051c-12.5919-4.6607-24.0574-21.9226-7.0662-55.9001h0.0001
		c29.4759,33.3138,28.9337,54.7047,14.4126,55.9327c2.827-15.2697-5.4075-23.5466-13.0587-28.1435
		C554.7013,602.0372,566.042,609.1776,559.9818,622.5051z"/>
	<path d="M848.1987,1188.4834c2.2596,13.2352-6.9568,31.7957-44.8777,34.0696h-0.0001
		c14.1126-42.1838,32.9088-52.4097,41.2328-40.4481c-14.6375,5.1866-17.6882,16.4564-17.8436,25.381
		C833.1132,1203.2904,833.6266,1189.8989,848.1987,1188.4834z"/>
	<path d="M1075.2913,294.3049c-6.9365-6.8438-22.8948-8.6367-43.3599,14.3281l-0.0001,0.0005
		c32.832,8.3816,48.5259,0.724,45.4164-9.4194c-10.528,7.0998-18.9362,4.4074-24.4581,0.8507
		C1058.6699,297.7479,1067.0967,302.9081,1075.2913,294.3049z"/>
	<path d="M306.3142,906.3124c-2.4586,9.4291,3.9679,24.1459,34.0884,30.3867l0.0005-0.0001
		c-9.1573-32.6241-23.6359-42.3867-30.8656-34.622c11.4126,5.5676,13.2851,14.1955,12.9658,20.756
		C317.6065,918.9855,317.8621,909.1075,306.3142,906.3124z"/>
	<path d="M1220.8168,1266.2625c9.3953-2.5854,18.9271-15.5093,9.2715-44.7148l-0.0004-0.0004
		c-23.6747,24.2426-24.89,41.6626-14.5508,44.0414c-0.8846-12.6674,5.6511-18.6029,11.4923-21.6067
		C1226.1458,1250.1464,1217.4635,1254.864,1220.8168,1266.2625z"/>
	<path d="M1428.735,905.6357c2.4698,9.4261-3.9388,24.1506-34.0519,30.4277l-0.0005-0.0001
		c9.1179-32.6351,23.5848-42.4151,30.8239-34.6592c-11.4058,5.5813-13.2679,14.2115-12.9408,20.7716
		C1417.4579,918.3223,1417.1904,908.4447,1428.735,905.6357z"/>
	<path d="M659.0203,294.5559c6.9283-6.8521,22.8845-8.6643,43.3771,14.2758l0.0001,0.0005
		c-32.8218,8.4212-48.525,0.7826-45.4277-9.3647c10.5365,7.0871,18.9415,4.3846,24.4592,0.8213
		C675.6458,297.9788,667.2253,303.1492,659.0203,294.5559z"/>
	<path d="M514.6671,1266.6882c-9.3983-2.5741-18.9457-15.4865-9.3253-44.7036l0.0004-0.0004
		c23.7039,24.2139,24.9402,41.6326,14.6038,44.0238c0.8694-12.6685-5.6735-18.5962-11.5183-21.5929
		C509.3186,1250.5786,518.0066,1255.2858,514.6671,1266.6882z"/>
	<path d="M1131.8275,318.7876c6.3765-7.3686,7.1237-23.41-17.1282-42.3322l-0.0004-0.0001
		c-6.2203,33.3089,2.4451,48.4688,12.364,44.705c-7.772-10.042-5.6339-18.6089-2.4453-24.351
		C1127.307,302.4261,1122.7079,311.1719,1131.8275,318.7876z"/>
	<path d="M299.2487,845.1093c-9.5696-1.8378-23.8355,5.5358-28.0967,35.9996l0.0001,0.0004
		c31.9565-11.2675,40.7527-26.3519,32.5337-33.0601c-4.8106,11.7517-13.2988,14.1836-19.8659,14.2932
		C287.3395,857.205,297.2131,856.8149,299.2487,845.1093z"/>
	<path d="M1171.3461,1302.9829c3.1931,9.2063,16.7118,17.8743,45.2249,6.3326l0.0002-0.0002
		c-25.7361-22.0415-43.1978-22.1169-44.8977-11.645c12.5826-1.7098,18.9327,4.4253,22.3113,10.0577
		C1187.7758,1307.2487,1182.5012,1298.8928,1171.3461,1302.9829z"/>
	<path d="M1435.7266,844.424c9.5674-1.8494,23.8422,5.507,28.1401,35.9656l-0.0001,0.0004
		c-31.9701-11.2289-40.7844-26.3027-32.5736-33.0208c4.8248,11.7459,13.316,14.1675,19.8832,14.2692
		C1447.6504,856.5053,1437.7762,856.1272,1435.7266,844.424z"/>
	<path d="M602.5137,319.1068c-6.3853-7.3609-7.1519-23.4014,17.0771-42.3528l0.0004-0.0001
		c6.2606,33.3014-2.3867,48.4717-12.3101,44.7199c7.7598-10.0514,5.6115-18.6157,2.416-24.3539
		C607.0145,302.7398,611.6241,311.4801,602.5137,319.1068z"/>
	<path d="M564.182,1303.349c-3.1821,9.2102-16.6902,17.8944-45.2172,6.3872l-0.0002-0.0004
		c25.7095-22.0725,43.1711-22.1689,44.8836-11.6991c-12.5847-1.6946-18.9274,4.4481-22.2991,10.0847
		C547.7574,1307.6346,553.0219,1299.2725,564.182,1303.349z"/>
	<path d="M867.5803,998.3438c3.1196,6.55,5.939,13.2455,8.4457,20.0551c11.6436,31.6626,16.5764,65.9017,13.6258,99.5288h-0.0001
		c-1.7778,20.4878-6.3542,40.838-10.6765,61.3651c0,0,0,0,0,0c-4.3359,20.4833-8.4374,41.3201-9.2198,62.5887
		c-0.8021,21.3021,2.0059,43.1742,10.9517,62.8193c5.7332,12.6017,14.241,24.1323,24.9194,32.9592
		c0.1443,1.2495,0.3205,2.4955,0.5375,3.7354c3.0457,17.3408,13.2313,33.265,27.6791,43.2032
		c8.485,5.8215,18.1924,9.5463,28.0732,12.0029c10.012,2.4937,20.2334,3.7933,30.4048,4.9666
		c10.1598,1.1744,20.3134,2.3093,30.2474,4.4995c0,0,0,0,0,0c9.8096,2.165,19.4509,5.4043,27.9982,10.618
		c15.7992,9.6261,27.3988,26.0742,31.1506,44.2782c2.9301,14.2073,1.0563,29.374-5.0421,42.5902
		c2.4794-6.8229,4.2543-14.7288-0.2531-25.2386c-14.2094,6.95-26.0201,32.0374-3.3563,80.6815v0.0016
		c31.3213-48.5526,28.8367-79.3657,11.8788-80.8651c4.6042,21.9512-4.2355,34.0299-12.7156,40.7957
		c-0.0671-4.5842,2.0635-9.0787,3.9861-14.1385c6.6974-13.4423,8.973-29.1416,6.0858-43.9434
		c-3.5938-18.4108-15.1246-35.1954-31.1097-45.1741c-8.6464-5.3915-18.3938-8.7941-28.2896-11.0798
		c-10.014-2.3156-20.2166-3.5696-30.3594-4.8485c-10.145-1.2825-20.272-2.676-30.0913-5.2382
		c-9.6788-2.53-19.1-6.2472-27.1894-11.9467c-13.7775-9.6821-23.3906-25.1252-26.1082-41.6719
		c-0.0291-0.1763-0.0528-0.3533-0.0803-0.5298c5.0835,3.7625,10.6041,6.9287,16.5117,9.3325c0,0,0,0,0.0001,0
		c10.2345,4.1425,21.51,5.8752,32.5303,4.489c11.0305-1.3905,21.688-6.0305,29.9394-13.5596
		c8.2563-7.5437,13.8591-17.9917,15.1108-29.144c1.2404-11.1702-2.1108-22.8002-9.473-31.3245
		c-4.955-5.699-11.5303-9.8505-18.6782-12.0658c-7.1446-2.2123-14.7863-2.5284-22.0726-1.1471c0,0,0,0,0,0
		c-14.5627,2.7953-27.252,12.1398-35.5885,24.1411c0,0,0,0-0.0001,0c-7.7328,11.1003-11.9566,24.5258-12.1539,37.99
		c-7.784-7.6787-14.0864-17.0281-18.5681-27.0419c0,0,0,0-0.0001-0.0001c-8.2683-18.4913-10.6359-39.3459-9.7154-59.8513
		c0.9379-20.5016,5.202-40.851,9.7135-61.2268c4.5424-20.41,9.384-41.0183,11.4841-62.2357c0,0,0,0,0,0
		c3.4217-34.9125-1.2906-70.5133-13.0658-103.5797c-4.7119-13.2454-10.5631-26.1016-17.48-38.3635
		c-6.9022,12.2701-12.7379,25.1334-17.4338,38.3845c-11.7354,33.0806-16.4047,68.687-12.9409,103.5953c0,0,0,0,0,0
		c2.1257,21.2148,6.9922,41.8173,11.5592,62.2218c4.536,20.3705,8.8248,40.7146,9.7874,61.2151
		c0.9452,20.5042-1.3972,41.3617-9.6433,59.863c0,0,0,0,0,0c-4.4697,10.0193-10.7608,19.3762-18.5355,27.0643
		c-0.2134-13.464-4.4534-26.8843-12.1996-37.9753c-0.0001,0-0.0001,0-0.0001,0c-8.351-11.9912-21.0515-21.3204-35.6176-24.0983
		c-0.0001,0-0.0001,0-0.0001,0c-7.288-1.3724-14.9293-1.0471-22.0712,1.1738c-7.1453,2.224-13.7155,6.3833-18.6637,12.0884
		c-7.3519,8.5331-10.689,20.1671-9.4352,31.3358c1.2651,11.1508,6.8804,21.5919,15.1459,29.1257
		c8.2604,7.519,18.9236,12.1462,29.9557,13.5234c11.0219,1.373,22.2953-0.3734,32.5248-4.5282c0.0001,0,0.0001,0,0.0001,0
		c5.9047-2.4109,11.4214-5.5839,16.5004-9.3525c-0.0273,0.1766-0.0508,0.3536-0.0797,0.5299
		c-2.6976,16.5499-12.2921,32.0046-26.0579,41.7034c-8.0825,5.7092-17.4991,9.4379-27.1749,11.9795
		c-9.8162,2.574-19.9415,3.9797-30.085,5.2744c-10.1412,1.2911-20.3423,2.5575-30.3535,4.8851
		c-9.8931,2.2977-19.6364,5.712-28.2762,11.1139c-15.973,9.998-27.4836,26.7965-31.0552,45.2115
		c-2.8694,14.8053-0.5749,30.5018,6.1388,43.936c1.9287,5.0575,4.0647,9.5494,4.0031,14.1338
		c-8.4882-6.7555-17.3425-18.8236-12.7648-40.7804c-16.9561,1.5199-19.4035,32.3361,11.9764,80.8507l-0.0001-0.0015
		c22.6051-48.6715,10.7642-73.7446-3.4536-80.6775c-4.4946,10.5154-2.7102,18.4191-0.2227,25.2389
		c-6.1143-13.2087-8.0063-28.3733-5.0934-42.5841c3.7299-18.2084,15.3096-34.6705,31.0973-44.3157
		c8.541-5.224,18.1783-8.4749,27.9854-10.6517c0-0.0001,0-0.0001,0-0.0001c9.9313-2.202,20.0836-3.3492,30.2419-4.5359
		c10.17-1.1854,20.3898-2.4974,30.3989-5.0032c9.8778-2.4686,19.5806-6.2051,28.0586-12.0367
		c14.4359-9.9557,24.6024-25.8922,27.6271-43.2367c0.2156-1.2401,0.3903-2.4863,0.5331-3.736
		c10.6676-8.8397,19.1615-20.3807,24.8795-32.9893c8.9221-19.6559,11.7037-41.5314,10.876-62.8325
		c-0.8081-21.2678-4.9347-42.0996-9.2953-62.5776c0,0,0,0,0,0c-4.3471-20.5219-8.9481-40.8666-10.7505-61.3521l0,0
		c-2.9912-33.6235,1.9004-67.8687,13.5057-99.5453C861.6572,1011.5964,864.4686,1004.8975,867.5803,998.3438z M714.9568,734.3599
		c-7.2322-0.5734-14.4404-1.4794-21.591-2.7133c-33.2424-5.7477-65.3608-18.5953-93.0074-37.9641v-0.0001
		c-16.854-11.7834-32.1897-25.9219-47.8054-39.9286c0,0,0,0,0,0c-15.5711-13.9966-31.5656-27.967-49.5937-39.279
		c-18.047-11.3456-38.3929-19.8499-59.879-21.9252c-13.7799-1.3357-28.0197,0.267-41.0032,5.1011
		c-1.1542-0.4998-2.3214-0.9702-3.5036-1.4021c-16.5404-6.0328-35.424-5.1739-51.2548,2.3692
		c-9.2841,4.4376-17.3635,10.9819-24.4314,18.3106c-7.1656,7.4238-13.4018,15.626-19.5036,23.8481
		c-6.097,8.2114-12.1566,16.4372-19.0203,23.9453c0,0,0,0-0.0001,0c-6.7798,7.4128-14.4057,14.1428-23.1945,18.9382
		c-16.2361,8.8695-36.2804,10.6909-53.9214,4.8382c-13.7688-4.5663-25.9668-13.7723-34.3631-25.6617
		c4.6691,5.5585,10.6283,11.0486,21.9838,12.4001c1.0858-15.7806-14.7351-38.5527-68.1941-43.2474l-0.0013-0.0008
		c26.3871,51.4013,54.3143,64.6562,64.0918,50.72c-21.3124-6.9883-27.3531-20.6831-28.9723-31.41
		c4.0036,2.234,6.8308,6.3264,10.2513,10.5213c8.2927,12.5214,20.7509,22.3417,35.0132,27.2422
		c17.741,6.0931,38.0424,4.4994,54.6768-4.3547c8.9922-4.7923,16.8127-11.5325,23.7401-18.9597
		c7.0124-7.5146,13.1997-15.7233,19.3787-23.8677c6.1831-8.1446,12.4535-16.2181,19.582-23.4408
		c7.0305-7.1171,14.9603-13.4174,23.9408-17.5734c15.2737-7.0906,33.4544-7.6943,49.143-1.7744
		c0.1672,0.0629,0.3323,0.1309,0.499,0.1953c-5.8002,2.5212-11.3025,5.719-16.338,9.6332c0,0,0,0-0.0001,0
		c-8.7047,6.7922-15.8431,15.6906-20.1527,25.9276c-4.311,10.2479-5.6214,21.7977-3.2267,32.708
		c2.4049,10.9221,8.6517,20.9982,17.684,27.6583c9.0535,6.6593,20.8009,9.5721,31.8643,7.4584
		c7.4131-1.4417,14.2959-5.0603,19.7885-10.1429c5.4882-5.0812,9.5828-11.541,12.0297-18.5419c0,0,0,0,0,0
		c4.8605-14.0093,3.1126-29.6708-3.1125-42.8911c0,0,0,0,0-0.0001c-5.7468-12.2469-15.2617-22.6176-26.8234-29.5206
		c10.542-2.9017,21.79-3.6851,32.7031-2.5594c0,0,0,0,0.0001-0.0001c20.1481,2.0851,39.3926,10.462,56.6905,21.5119
		c17.286,11.063,32.7769,24.9306,48.1673,39.0256c15.4044,14.1388,30.8308,28.6359,48.1556,41.0634c0,0,0,0,0,0
		c28.5242,20.4195,61.7116,34.139,96.2355,40.4745c13.8268,2.5421,27.8862,3.9029,41.9637,4.0435
		c-7.1752-12.1125-15.3973-23.598-24.5251-34.2903c-22.7809-26.7033-51.2823-48.5504-83.2457-63.0048c-0.0001,0-0.0001,0-0.0001,0
		c-19.4354-8.7665-39.7109-14.8531-59.6652-21.1003c-19.9094-6.257-39.6723-12.7149-57.9075-22.1315
		c-18.2298-9.4335-35.1217-21.8909-47.0213-38.2828c0-0.0001,0-0.0001,0-0.0001c-6.4421-8.8804-11.3999-19.0072-14.1707-29.5844
		c11.7669,6.5471,25.5092,9.5853,38.9875,8.4224c0.0001,0,0.0001,0,0.0001,0c14.5602-1.2366,28.9897-7.571,38.6784-18.7966
		c0.0001,0,0.0001,0,0.0001,0c4.8326-5.6254,8.3715-12.4056,10.0191-19.7011c1.6465-7.3,1.3296-15.0696-1.137-22.2074
		c-3.714-10.6335-12.1208-19.3406-22.42-23.839c-10.2894-4.4798-22.1394-4.8373-32.7966-1.4461
		c-10.6419,3.3942-19.9808,10.3151-26.6895,19.1806c-6.7,8.8588-10.8243,19.4951-12.3409,30.4314c0,0.0001,0,0.0001,0,0.0001
		c-0.8645,6.319-0.875,12.6831-0.1507,18.9659c-0.1393-0.1119-0.2808-0.2208-0.419-0.3339
		c-12.9839-10.6111-21.5708-26.6475-23.0872-43.4185c-0.903-9.8543,0.5762-19.8736,3.2129-29.5239
		c2.679-9.7881,6.5243-19.2597,10.4747-28.6915c3.9524-9.4282,7.9563-18.8957,10.9461-28.7295
		c2.9567-9.7165,4.8714-19.8616,4.5132-30.0449c-0.672-18.832-9.4647-37.1998-23.6268-49.5004
		c-11.3871-9.8875-26.1279-15.7487-41.1191-16.6516c-5.3442-0.8584-10.3024-1.2546-14.2417-3.6001
		c10.0945-3.9732,24.973-5.6073,41.6992,9.3355c7.1618-15.4443-18.3021-32.9719-76.007-30.0535l0.0013,0.0007
		c30.8482,43.9124,58.4826,46.1944,71.5955,37.3479c-6.8593-9.1502-14.5963-11.5567-21.7462-12.8123
		c14.4963,1.3093,28.5751,7.253,39.4256,16.881c13.904,12.3345,22.3708,30.5938,22.8299,49.0889
		c0.2536,10.0087-1.7498,19.9803-4.768,29.5619c0,0.0001,0,0.0001,0,0.0001c-3.0586,9.7018-7.1413,19.0674-11.1927,28.4582
		c-4.0583,9.4002-8.032,18.9069-10.8665,28.8278c-2.8011,9.7887-4.4166,20.0598-3.6052,30.3179
		c1.4039,17.4797,10.1222,34.2523,23.6305,45.5441c0.9662,0.8067,1.958,1.5811,2.9689,2.3296
		c2.3217,13.6584,8.0695,26.7848,16.1298,38.041c12.5615,17.5547,30.1154,30.9014,48.9766,40.8351
		c18.8226,9.9341,38.9267,16.7763,58.8415,23.239c0-0.0001,0-0.0001,0-0.0001c19.946,6.4962,39.8655,12.6841,58.5078,21.3658h0.0001
		c30.6144,14.2213,57.8257,35.5801,79.4558,61.4689C706.4412,722.6041,710.8369,728.3882,714.9568,734.3599z M1019.8853,734.1761
		c4.1127-5.9767,8.5013-11.7661,13.1453-17.3417c21.5989-25.9149,48.7844-47.3065,79.3816-61.5647h0.0001
		c18.6317-8.7043,38.5438-14.9161,58.4819-21.4364c0,0,0,0,0,0c19.907-6.4866,40.0028-13.353,58.8134-23.3098
		c18.8491-9.9564,36.387-23.3243,48.9274-40.8941c8.0466-11.2659,13.7787-24.3992,16.0839-38.0604
		c1.0099-0.7497,2.0009-1.5253,2.9661-2.3331c13.4948-11.308,22.1927-28.0912,23.5756-45.5725
		c0.799-10.259-0.8289-20.5282-3.6417-30.3135c-2.8464-9.9175-6.8317-19.4193-10.9014-28.8147
		c-4.0627-9.3859-8.1567-18.7466-11.2271-28.4447c0,0,0,0,0.0001-0.0001c-3.0299-9.5779-5.0452-19.5471-4.8037-29.5562
		c0.4369-18.4956,8.8816-36.7652,22.7708-49.1164c10.8389-9.6411,24.9105-15.6017,39.4053-16.9285
		c-7.1484,1.2643-14.8826,3.6801-21.7307,12.8385c13.1235,8.8307,40.7551,6.5154,71.5504-37.4342l0.0013-0.0007
		c-57.7085-2.8488-83.1511,14.7095-75.9707,30.1452c16.7081-14.963,31.5886-13.3469,41.688-9.3858
		c-3.9365,2.3503-8.8943,2.7524-14.2374,3.6173c-14.9901,0.921-29.7239,6.7999-41.099,16.7012
		c-14.1472,12.3176-22.9177,30.696-23.5671,49.5288c-0.3458,10.1837,1.5811,20.3265,4.5496,30.0394
		c3.0016,9.8302,7.0168,19.2929,10.9807,28.7163c3.9618,9.427,7.8185,18.8941,10.5093,28.6789
		c2.6483,9.6471,4.1396,19.6647,3.2485,29.5201c-1.4962,16.7728-10.0637,32.8195-23.0349,43.4463
		c-0.1381,0.1133-0.2795,0.2224-0.4186,0.3344c0.7167-6.2837,0.6985-12.6477-0.1736-18.9657c0,0,0,0,0-0.0001
		c-1.5298-10.9345-5.6669-21.5658-12.3776-30.4165c-6.7195-8.8574-16.0667-15.7671-26.7126-19.1484
		c-10.6613-3.3784-22.5109-3.0065-32.7948,1.4857c-10.2938,4.5109-18.6902,13.2281-22.3914,23.866
		c-2.458,7.1407-2.7656,14.9108-1.1102,22.2088c1.6564,7.2935,5.2035,14.0695,10.0428,19.689c0,0,0,0,0.0001,0
		c9.7021,11.214,24.1394,17.531,38.701,18.75c0,0,0,0,0,0c13.4796,1.1467,27.2183-1.9081,38.9773-8.4694
		c-2.7581,10.5805-7.7036,20.7132-14.135,29.6014c0,0,0,0,0,0.0001c-11.8798,16.4063-28.7566,28.884-46.9751,38.3395
		c-18.2238,9.4386-37.9789,15.9203-57.8807,22.2013c-19.9468,6.2712-40.2148,12.3823-59.6396,21.1722c0,0,0,0,0,0
		c-31.9459,14.493-60.421,36.3744-83.1698,63.1052c-9.1149,10.7034-17.3231,22.1987-24.4836,34.3199
		c14.0773-0.1576,28.135-1.5354,41.9589-4.0942c34.5162-6.3771,67.687-20.1367,96.1866-40.5905c0,0,0,0,0,0
		c17.3097-12.4484,32.7186-26.9641,48.106-41.1214c15.3734-14.1135,30.8475-27.9998,48.1202-39.0836
		c17.2845-11.0707,36.5189-19.4709,56.6644-21.5803c0.0001,0.0001,0.0001,0.0001,0.0001,0.0001
		c10.9117-1.1388,22.1606-0.369,32.7062,2.52c-11.5535,6.9169-21.0558,17.299-26.7878,29.5529c0,0.0001,0,0.0001,0,0.0001
		c-6.2092,13.2277-7.9382,28.8914-3.0608,42.8948c-0.0001,0.0001-0.0001,0.0001-0.0001,0.0001
		c2.4554,6.9979,6.5579,13.4527,12.0521,18.5273c5.4987,5.076,12.386,8.6863,19.8008,10.119
		c11.0658,2.1003,22.8097-0.8266,31.8552-7.4968c9.0242-6.671,15.2589-16.7546,17.6506-27.6796
		c2.3815-10.9132,1.0573-22.4614-3.2662-32.7041c-4.3219-10.2318-11.4711-19.1216-20.1838-25.9033
		c-0.0001-0.0001-0.0001-0.0001-0.0001-0.0001c-5.0403-3.9081-10.5465-7.0994-16.3497-9.6135
		c0.1666-0.0646,0.3317-0.1328,0.4988-0.196c15.6814-5.9388,33.8628-5.3571,49.1451,1.7151
		c8.9855,4.1451,16.923,10.4358,23.9619,17.5444c7.1373,7.2141,13.4174,15.28,19.6102,23.4172
		c6.1888,8.137,12.386,16.3381,19.4075,23.8443c6.9364,7.4188,14.765,14.1496,23.7631,18.931
		c16.645,8.834,36.9484,10.4033,54.682,4.2888c14.2563-4.9177,26.7028-14.7531,34.9802-27.2844
		c3.4155-4.199,6.2378-8.2949,10.2386-10.5336c-1.6063,10.7288-7.6305,24.4309-28.9344,31.4448
		c9.7943,13.9244,37.7056,0.6359,64.0306-50.7972l-0.0012,0.0008c-53.4534,4.7591-69.2468,27.5502-68.142,43.3296
		c11.3539-1.3652,17.3065-6.8624,21.9689-12.4266c-8.3821,11.8995-20.5688,21.1203-34.3322,25.7031
		c-17.6339,5.874-37.6804,4.0767-53.9272-4.7732c-8.7946-4.7847-16.4286-11.5055-23.2174-18.9102c0,0,0,0,0,0
		c-6.8728-7.4998-12.9423-15.7183-19.0492-23.9223c-6.1117-8.2147-12.3578-16.4094-19.5323-23.8246
		c-7.0767-7.3201-15.1641-13.8548-24.4534-18.2811c-15.8398-7.524-34.7245-8.3601-51.2577-2.3074
		c-1.1816,0.4333-2.3483,0.9052-3.5018,1.4063c-12.9894-4.8185-27.2311-6.404-41.0094-5.0517
		c-21.4835,2.1012-41.8191,10.63-59.8524,21.9974c-18.0145,11.3337-33.9921,25.3233-49.5463,39.3387c0,0,0,0,0,0
		c-15.5989,14.0256-30.9175,28.1825-47.7572,39.9863v0.0001c-27.6233,19.4022-59.7262,32.2885-92.9615,38.0763
		C1034.3239,732.6793,1027.1168,733.594,1019.8853,734.1761z M1127.7461,199.5162c-6.5306,1.197-13.2455,1.3556-19.8047,0.479
		C1112.9855,200.2782,1120.0919,200.3699,1127.7461,199.5162z M197.9974,908.2796c4.302,5.0571,7.7967,10.7931,10.3171,16.9118
		C206.0376,920.6816,202.5638,914.4814,197.9974,908.2796z M1276.6788,1359.0839c2.2286-6.2542,5.4487-12.1487,9.4875-17.3907
		C1283.3993,1345.9199,1279.7666,1352.0283,1276.6788,1359.0839z M1526.7573,924.3965c2.5129-6.1218,6.0009-11.8619,10.2966-16.9243
		C1532.4951,913.6796,1529.0288,919.884,1526.7573,924.3965z M626.2565,200.2856c-6.5581,0.8846-13.2731,0.7341-19.8052-0.4551
		C614.1065,200.675,621.2128,200.5747,626.2565,200.2856z M449.4085,1342.1976c4.0451,5.2372,7.2723,11.1278,9.5085,17.3794
		C455.8207,1352.5251,452.1807,1346.421,449.4085,1342.1976z M1094.2064,195.441c4.7161,1.3226,9.5848,2.0772,14.4749,2.2729
		c-2.6757,0.5823-4.8817,1.0067-6.3351,1.2718c-2.5792-0.5888-5.1185-1.3395-7.5939-2.2602
		c-3.4033-1.2628-6.6753-2.8388-9.7863-4.6858C1087.9521,193.4129,1091.0432,194.554,1094.2064,195.441z M211.2379,939.3634
		c-1.2126-4.7455-2.9935-9.3392-5.269-13.6721c1.8421,2.0261,3.3127,3.7244,4.269,4.8505c0.7797,2.5281,1.3992,5.1025,1.8395,7.7066
		c0.608,3.5787,0.8792,7.2004,0.835,10.8181C212.6087,945.7939,212.0514,942.5463,211.2379,939.3634z M1296.9779,1332.0753
		c-3.5034,3.423-6.5913,7.2621-9.2058,11.3992c0.8336-2.6084,1.5691-4.7311,2.0662-6.1223
		c1.7994-1.9392,3.7194-3.7629,5.7544-5.4463c2.7952-2.316,5.7961-4.3617,8.951-6.1322
		C1301.8615,1327.673,1299.3276,1329.7794,1296.9779,1332.0753z M1522.1881,948.277c-0.0485-3.6176,0.2183-7.2396,0.822-10.819
		c0.4373-2.6046,1.0536-5.1799,1.8302-7.7088c0.955-1.1273,2.4235-2.8273,4.2632-4.8557
		c-2.2704,4.3356-4.0457,8.9315-5.2526,13.6784C1523.0414,941.7559,1522.4879,945.0041,1522.1881,948.277z M649.2222,192.3024
		c-3.1086,1.8508-6.3788,3.4307-9.7806,4.6976c-2.4742,0.9237-5.0126,1.6775-7.5911,2.2694
		c-1.4537-0.2634-3.6602-0.6851-6.3366-1.2641c4.8898-0.2016,9.7577-0.9621,14.472-2.2904
		C643.1482,194.8241,646.2379,193.6792,649.2222,192.3024z M431.0119,1326.3004c3.1571,1.7667,6.1605,3.8087,8.9585,6.1213
		c2.0371,1.6809,3.9591,3.5023,5.7609,5.4395c0.4988,1.3906,1.2368,3.5123,2.0735,6.1198
		c-2.6195-4.1339-5.7121-7.9694-9.2196-11.3881C436.2328,1330.2998,433.6965,1328.1964,431.0119,1326.3004z M1053.0892,157.3443
		c0.3639,1.0091,0.757,2.0069,1.1683,2.9969c-4.1929-9.3548-6.213-19.7037-5.8826-29.9417
		c0.2395-7.4456,1.7014-14.8213,4.201-21.8365C1047.5273,124.3946,1047.4891,141.7859,1053.0892,157.3443z M198.8038,994.0203
		c0.6919-0.8196,1.3596-1.659,2.0112-2.5103c-6.005,8.3086-13.9574,15.2325-22.989,20.0653
		c-6.5678,3.5154-13.6864,5.9371-21.0115,7.2801C173.0496,1015.3119,188.1299,1006.6493,198.8038,994.0203z M1350.5292,1315.5151
		c-1.0558-0.1893-2.1165-0.3479-3.1796-0.4866c10.198,1.0461,20.1704,4.4712,28.8716,9.8763
		c6.3284,3.9302,11.9849,8.8842,16.8104,14.5565C1381.8455,1327.1732,1366.8032,1318.4445,1350.5292,1315.5151z
		 M1578.3701,1017.9982c-7.3268-1.334-14.4482-3.7472-21.0203-7.2547c-9.0375-4.822-16.9982-11.7362-23.0132-20.0376
		c0.6527,0.8505,1.3214,1.689,2.0143,2.5079C1547.04,1005.83,1562.1309,1014.4744,1578.3701,1017.9982z M681.5116,108.7867
		c2.5081,7.0122,3.9789,14.3862,4.2274,21.8315c0.3427,10.2376-1.6649,20.5889-5.8465,29.9487
		c0.4102-0.9905,0.802-1.9888,1.1647-2.9983C686.6385,142.0035,686.5794,124.6123,681.5116,108.7867z M342.5406,1340.0947
		c4.8187-5.6781,10.4693-10.6389,16.7929-14.5768c8.6946-5.4155,18.6629-8.8527,28.8596-9.9111
		c-1.0629,0.14-2.1234,0.2998-3.179,0.4905C368.7437,1319.0463,353.712,1327.7931,342.5406,1340.0947z M867.3088,548.1669
		c4.7275-4.6298,10.8475-7.8474,17.323-9.4043c6.5805-1.5841,13.5803-1.4479,20.2193,0.1115
		c6.6442,1.5601,12.9554,4.5745,18.5713,8.554c5.1546,3.6382,9.6688,8.1073,13.5148,13.1381
		c-1.7556,11.7346-6.701,23.0201-15.0568,31.1069c-5.5132,5.3638-12.4355,9.3058-19.8601,11.0728
		c-7.4189,1.7693-15.3802,1.3756-22.4503-1.3083H879.57c-4.5571-1.7266-8.7654-4.414-12.2338-7.8144
		c-3.4642,3.4045-7.6693,6.097-12.2244,7.8291l-0.0001,0.0001c-7.0668,2.6924-15.0276,3.0957-22.4487,1.3353
		c-7.4268-1.7579-14.3538-5.6917-19.8735-11.0488c-8.3655-8.0767-13.3245-19.3563-15.0942-31.0887
		c3.84-5.0355,8.3488-9.51,13.499-13.1544c5.6111-3.9863,11.9187-7.0082,18.561-8.5764c6.6372-1.5673,13.6368-1.712,20.2192-0.1358
		C856.4518,540.3326,862.5757,543.5428,867.3088,548.1669z M1104.9572,959.2133c1.6458,6.409,1.3723,13.3179-0.5171,19.7043
		c-1.9185,6.491-5.5363,12.4848-10.2062,17.4548c-4.6732,4.9739-10.4393,8.9324-16.6936,11.8062
		c-5.7281,2.645-11.8556,4.3198-18.1354,5.1351c-9.2847-7.3876-16.5854-17.3133-19.411-28.593
		c-1.8885-7.4565-1.8413-15.4224,0.3408-22.7357c2.1771-7.3096,6.4988-14.0075,12.358-18.7883l0.0001-0.0001
		c3.7738-3.0833,8.2054-5.3842,12.8844-6.6876c-1.2163-4.7024-1.4456-9.6904-0.6681-14.5012v-0.0001
		c1.2017-7.4662,4.8329-14.5621,10.068-20.1088c5.2357-5.5528,12.106-9.5849,19.5052-11.6865
		c11.1774-3.2064,23.4252-1.8612,34.4707,2.4724c2.4408,5.8433,4.0615,11.9852,4.6426,18.2677
		c0.6466,6.8525,0.11,13.826-1.8531,20.3624c-1.9613,6.5317-5.3357,12.6658-9.9919,17.5782
		C1117.1703,953.728,1111.3282,957.4263,1104.9572,959.2133z M630.1564,959.4996c-6.3733-1.7793-12.2198-5.4705-16.8059-10.3
		c-4.6622-4.9069-8.044-11.0369-10.0132-17.5662c-1.9709-6.5341-2.516-13.5069-1.8776-20.3602
		c0.5734-6.2831,2.1867-12.4271,4.6205-18.2733c11.0402-4.3469,23.2864-5.7067,34.4677-2.5139
		c7.4019,2.0927,14.2769,6.1165,19.5194,11.663c5.2417,5.5403,8.8814,12.6319,10.0921,20.0966v0.0001
		c0.7833,4.8099,0.5601,9.7982-0.6505,14.502c4.6805,1.2979,9.1149,3.5933,12.8924,6.6721l0.0001,0.0001
		c5.8651,4.7737,10.1948,11.4664,12.3808,18.7734c2.191,7.3108,2.2477,15.2766,0.3682,22.7354
		c-2.8119,11.2831-10.1007,21.2175-19.3765,28.6163c-6.2808-0.8078-12.4103-2.4752-18.1415-5.1132
		c-6.2578-2.8663-12.0286-6.8178-16.7078-11.7861c-4.6759-4.9644-8.301-10.9538-10.2272-17.4424
		C628.8001,972.8191,628.5184,965.9106,630.1564,959.4996z M1248.8395,541.1381h-0.0001
		c-13.7233-1.3412-27.2428-7.3905-35.954-17.7991h-0.0001c-4.3705-5.1971-7.5477-11.4145-8.9547-17.9927c0,0,0,0,0-0.0001
		c-1.4081-6.5725-1.0643-13.543,1.1836-19.8054c3.3074-9.3236,10.9552-17.0308,20.0753-20.9273
		c9.1353-3.9166,19.8159-4.0969,29.3005-0.9991c9.5035,3.0964,17.8965,9.4845,23.8999,17.5411
		c6.0137,8.0652,9.6727,17.857,10.9896,27.8965c1.0186,7.6455,0.6261,15.4009-0.913,22.9836
		C1276.6605,539.1639,1262.5162,542.4543,1248.8395,541.1381z M433.3039,632.5988L433.3039,632.5988
		c5.7002,12.5554,7.2211,27.2883,2.5627,40.0367l0,0c-2.3156,6.3835-6.1114,12.2438-11.1047,16.7514c0,0,0,0-0.0001,0.0001
		c-4.9879,4.5057-11.1964,7.6933-17.7438,8.8777c-9.7282,1.7975-20.2268-0.9721-28.1613-6.9221
		c-7.9594-5.9531-13.456-15.1127-15.5156-24.8755c-2.0702-9.7784-0.7345-20.241,3.2411-29.4684
		c3.9778-9.2406,10.6283-17.3053,18.6643-23.4655c6.1119-4.7049,13.0245-8.2427,20.3608-10.7012
		C417.6837,609.4921,427.6055,620.0962,433.3039,632.5988z M920.2789,1293.1429v-0.0001
		c8.0232-11.2141,20.0218-19.8977,33.3915-22.2375l0,0c6.6861-1.1864,13.6591-0.8293,20.0595,1.2412c0,0,0,0,0.0001,0.0001
		c6.396,2.0668,12.2608,5.8497,16.5602,10.9277c6.4208,7.5261,9.2715,18.0029,8.0859,27.8494
		c-1.1758,9.8696-6.3599,19.2096-13.785,25.8746c-7.4333,6.682-17.162,10.7566-27.141,11.9272
		c-9.9915,1.1754-20.301-0.5516-29.6539-4.4309c-7.1306-2.9407-13.6506-7.1583-19.448-12.2825
		C908.0781,1318.2238,912.3007,1304.3292,920.2789,1293.1429z M1329.0758,602.275c7.3392,2.4497,14.2561,5.9792,20.3738,10.6767
		c8.0433,6.1505,14.7035,14.2072,18.6925,23.443c3.9868,9.2226,5.3351,19.6836,3.2767,29.4645
		c-2.0479,9.7653-7.5333,18.9315-15.4856,24.8942c-7.9272,5.9595-18.4225,8.7418-28.1528,6.956
		c-6.5488-1.1765-12.7612-4.3566-17.7545-8.8563c-0.0001-0.0001-0.0001-0.0001-0.0001-0.0001
		c-4.9988-4.5016-8.8016-10.3572-11.1249-16.738v-0.0001c-4.6738-12.7427-3.1708-27.4775,2.5143-40.0397v-0.0001
		C1307.0986,619.5659,1317.0076,608.9498,1329.0758,602.275z M446.1319,532.5435c-1.5481-7.5808-1.95-15.3357-0.9406-22.9825
		c1.3048-10.041,4.952-19.8372,10.9559-27.9097c5.9937-8.0639,14.379-14.4621,23.8787-17.5699
		c9.4809-3.1092,20.1618-2.9417,29.3018,0.9638c9.1248,3.8855,16.7819,11.5835,20.1005,20.9031
		c2.2555,6.2597,2.6077,13.2298,1.2075,19.804c0,0.0001,0,0.0001,0,0.0001c-1.399,6.5799-4.5688,12.8011-8.933,18.0034l0,0
		c-8.6987,10.4191-22.2109,16.4847-35.9326,17.8424h0C472.0948,542.931,457.9466,539.6576,446.1319,532.5435z M827.2146,1332.0612
		c-5.7911,5.1311-12.3062,9.3566-19.4331,12.3058c-9.3482,3.8906-19.6556,5.6301-29.6486,4.4668
		c-9.9803-1.1587-19.714-5.2216-27.1553-11.8945c-7.4331-6.6561-12.6285-15.9899-13.8162-25.858
		c-1.1974-9.845,1.6406-20.3252,8.0524-27.8591c4.2933-5.0831,10.1535-8.8732,16.547-10.9476
		c0.0001-0.0001,0.0001-0.0001,0.0001-0.0001c6.3978-2.0782,13.3704-2.4437,20.058-1.2655v0.0001
		c13.3725,2.3236,25.3816,10.9928,33.4182,22.1973l0.0001,0.0001C823.2289,1304.3829,827.4682,1318.2723,827.2146,1332.0612z
		 M905.8823,800.0874c3.0436-22.1602,8.4142-43.9982,16.1399-64.997c5.8397-15.8928,13.0063-31.4409,19.5579-47.389l0.0001-0.0001
		c6.5325-15.8637,12.4456-32.237,15.6341-49.3663c3.21-17.1812,3.4772-35.2175-1.1835-52.2859
		c-2.9777-10.9163-8.1467-21.3533-15.309-30.1376c0.0345-0.5699,0.0645-1.1397,0.0848-1.7092
		c0.0001-0.0001,0.0001-0.0001,0.0001-0.0001c0.5262-14.6539-3.2418-29.0833-8.8291-42.4377
		c-8.0358-19.2321-19.6578-36.5368-28.9559-54.8924c-9.2683-18.3554-16.4072-38.5916-14.3745-58.9393
		c1.0631-10.7887,4.8519-21.2949,10.72-30.4562c5.8694-9.1601,13.8445-17.0166,23.2518-22.5228
		c9.4066-5.5078,20.1868-8.6305,31.1024-9.2674c7.5805-0.4417,15.2485,0.3173,22.5892,2.2946
		c-4.9704,2.0329-11.4333,2.4168-19.3228-2.1792c-2.4348,10.3261,13.7281,16.935,45.9377,6.4112l0.0001-0.0001
		c-21.9313-21.5691-37.7371-18.7298-44.2083-11.4445c8.7421,8.045,16.8119,2.3415,22.7321,4.2731
		c-1.4421,1.0693-3.1052,2.0866-4.9824,2.8726c-7.3693-2.0862-15.0983-2.9465-22.7648-2.5824
		c-10.9747,0.5207-21.8692,3.5435-31.4389,9.0069c-9.5692,5.4651-17.7348,13.3263-23.7902,22.5581
		c-6.0568,9.2315-10.0302,19.8753-11.2392,30.8885c0,0,0,0,0,0.0001c-2.2502,20.7465,4.7158,41.4189,13.9182,60.0212
		c9.175,18.6092,20.6,36.0172,28.2726,55.0063c5.1033,12.6489,8.554,26.1072,8.2117,39.5516
		c-3.2993-3.5529-6.9565-6.7753-10.9623-9.5699h-0.0001c-6.1953-4.307-13.1907-7.5359-20.6072-9.2093
		c-7.4218-1.6743-15.2432-1.7202-22.6741,0.134c-5.8249,1.4548-11.3599,4.1133-16.088,7.8333
		c-4.7326-3.7142-10.2708-6.366-16.0974-7.8138c-7.433-1.8453-15.2545-1.7899-22.6743-0.1067
		c-7.4144,1.6823-14.4059,4.9196-20.596,9.2341h-0.0001c-4.0024,2.7994-7.6558,6.0262-10.9507,9.5831
		c-0.3584-13.444,3.076-26.9064,8.164-39.5615c7.6497-18.9983,19.0536-36.42,28.2062-55.0403
		c9.18-18.6134,16.121-39.2942,13.8458-60.038c-0.0001-0.0001-0.0001-0.0001-0.0001-0.0001
		c-1.2222-11.0117-5.2085-21.6507-11.2764-30.8749c-6.0665-9.2245-14.2416-17.0759-23.8174-22.5294
		c-9.5763-5.4518-20.4744-8.4615-31.4498-8.969c-7.6669-0.3549-15.3949,0.5147-22.7616,2.6099
		c-1.8782-0.7836-3.5425-1.799-4.9858-2.8665c5.9179-1.9388,13.9946,3.755,22.7269-4.3005
		c-6.48-7.2775-22.2892-10.0977-44.1945,11.4978l0.0001,0.0001c32.2222,10.485,48.3773,3.8566,45.9299-6.4665
		c-7.8839,4.6056-14.3472,4.2294-19.3201,2.2025c7.3382-1.9861,15.0054-2.7544,22.5864-2.3218
		c10.9163,0.6237,21.7003,3.7334,31.1135,9.2298c9.4139,5.4949,17.3985,13.3417,23.2789,22.4948
		c5.8792,9.1543,9.6807,19.6559,10.7568,30.4433c2.0574,20.3452-5.0572,40.59-14.3033,58.9565
		c-9.2761,18.3668-20.8771,35.6855-28.8897,54.9273c-5.5712,13.3611-9.3218,27.7951-8.7779,42.4483c0,0.0001,0,0.0001,0,0.0001
		c0.021,0.5695,0.0516,1.1392,0.0869,1.709c-7.1517,8.793-12.3082,19.2362-15.2726,30.1561
		c-4.6401,17.074-4.3512,35.11-1.1205,52.2873c3.2092,17.1255,9.1421,33.4916,15.6937,49.3474l0.0001,0.0001
		c6.5709,15.9402,13.7561,31.4797,19.615,47.3654c7.751,20.9894,13.1479,42.8209,16.2183,64.9775
		c-20.7131,8.4442-42.3106,14.7122-64.3589,18.5209c-16.6834,2.889-33.7318,4.4567-50.819,6.7569h-0.0001
		c-17.0046,2.2745-34.1409,5.3403-50.5696,11.1436c-16.4843,5.8106-32.2379,14.5974-44.6891,27.1679
		c-7.965,8.0369-14.4193,17.7319-18.4455,28.3268c-0.5108,0.255-1.0193,0.514-1.5226,0.7811c-0.0001,0-0.0001,0-0.0001,0.0001
		c-12.9537,6.8712-23.566,17.3491-32.3376,28.8651c-12.6376,16.5753-21.8129,35.2925-33.0602,52.5228
		c-11.2621,17.2043-25.2177,33.5049-43.8557,41.9183c-9.8749,4.4737-20.8679,6.4456-31.7359,5.9443
		c-10.8676-0.5029-21.659-3.4814-31.1312-8.8752c-9.4732-5.3924-17.5677-13.1671-23.577-22.3018
		c-4.1728-6.344-7.3495-13.3643-9.3074-20.71c4.2458,3.288,7.8097,8.6931,7.7741,17.8235
		c10.1601-3.0544,7.8021-20.3564-17.4167-42.9888h-0.0002c-7.7138,29.7775,2.648,42.0461,12.1929,44.0078
		c2.5961-11.5933-6.3781-15.7303-7.6655-21.8232c1.6471,0.7142,3.3597,1.6459,4.9789,2.8786
		c1.8779,7.4251,4.9973,14.5488,9.1459,21.0061c5.9383,9.244,14.0034,17.1675,23.5197,22.7234
		c9.5175,5.5547,20.4083,8.6957,31.431,9.3239c11.0231,0.6295,22.2276-1.2513,32.3698-5.7109c0,0,0,0,0.0001,0
		c19.0921-8.4245,33.512-24.7935,45.0208-42.0641c11.5286-17.2504,20.8918-35.8488,33.5005-51.9879
		c8.4026-10.744,18.3326-20.4615,30.1468-26.8874c-1.4272,4.6337-2.3893,9.4122-2.8066,14.2786v0.0001
		c-0.6323,7.5187,0.0691,15.1913,2.3281,22.4509c2.2609,7.2646,6.1319,14.0612,11.4531,19.5693
		c4.1724,4.317,9.2422,7.7813,14.8278,10.016c-0.8503,5.9556-0.3777,12.0778,1.2817,17.8477
		c2.1185,7.3599,6.0771,14.1057,11.2448,19.6898c5.1642,5.58,11.4635,10.0162,18.295,13.2197l0.0001,0.0001
		c4.4255,2.0665,9.0468,3.617,13.7746,4.6921c-11.4636,7.0323-24.8396,10.7893-38.3432,12.7104
		c-20.2778,2.8744-41.0675,1.7091-61.7695,3.0929c-20.7097,1.3566-42.0903,5.6859-58.9173,18.0282c-0.0001,0-0.0001,0-0.0001,0
		c-8.9253,6.5645-16.1458,15.3361-21.1003,25.2031c-4.9554,9.8661-7.6674,20.8716-7.6024,31.8912
		c0.0667,11.0192,2.9093,21.962,7.9575,31.7207c3.5261,6.8173,8.1432,13.0751,13.641,18.4072
		c0.2604,2.0183,0.2133,3.9674,0.0104,5.7512c-4.6379-4.1558-3.7454-13.9973-15.0878-17.5319
		c-3.0625,9.2506,2.3997,24.3518,32.0546,32.5245l0.0001-0.0001c-7.0308-33.1478-20.8487-43.8242-28.5652-36.5433
		c7.9305,4.5249,10.8364,10.3104,11.5674,15.6305c-5.3891-5.3621-9.8881-11.6178-13.3039-18.3994
		c-4.918-9.7656-7.617-20.6598-7.5635-31.5601c0.0518-10.9001,2.855-21.7384,7.8416-31.4075
		c4.9883-9.6687,12.1822-18.2117,20.9863-24.5374c16.5908-11.9542,37.6805-15.9153,58.2096-17.0912
		c20.5442-1.1501,41.3431,0.2374,62.0133-2.4443c14.3566-1.8558,28.7322-5.8247,41.1503-13.6223
		c0.0001-0.0001,0.0001-0.0001,0.0001-0.0001c0.4826-0.3029,0.9608-0.6143,1.4366-0.9297
		c11.1907,1.7971,22.8131,1.041,33.7523-1.8516c17.1066-4.5185,32.5818-13.7867,45.8423-25.1733
		c13.2265-11.3419,24.4336-24.6631,34.8893-38.2648l0.0001-0.0001c10.5192-13.6606,20.3842-27.653,31.2122-40.6697
		c14.3018-17.2073,30.5101-32.7969,48.163-46.5342c17.6694,13.7159,33.8965,29.286,48.2191,46.4761
		c10.8437,13.0037,20.7255,26.9841,31.2612,40.6321l0.0001,0.0001c10.472,13.5891,21.6952,26.8967,34.9354,38.2227
		c13.2742,11.3705,28.7606,20.6201,45.8726,25.118c10.9426,2.8795,22.5659,3.6215,33.7545,1.8109
		c0.4762,0.3149,0.9547,0.6257,1.4377,0.928c0.0001,0.0001,0.0001,0.0001,0.0001,0.0001
		c12.4275,7.7827,26.8077,11.7342,41.1666,13.5727c20.6735,2.6569,41.4707,1.2443,62.0162,2.3696
		c20.5304,1.1511,41.625,5.0867,58.2301,17.021c8.8118,6.3151,16.016,14.8492,21.0159,24.512
		c4.9983,9.6631,7.8146,20.4979,7.8795,31.3979c0.0665,10.9003-2.6193,21.7976-7.5255,31.5691
		c-3.4076,6.7859-7.899,13.047-13.2816,18.4155c0.7246-5.3209,3.6235-11.1099,11.5486-15.6444
		c-7.7252-7.2716-21.5303,3.4215-28.5211,36.5778v0.0001c29.645-8.2085,35.0891-23.3163,32.0154-32.5632
		c-11.3381,3.5483-10.4337,13.3888-15.0667,17.55c-0.205-1.7836-0.2545-3.7325,0.0035-5.7511
		c5.4913-5.3389,10.101-11.6023,13.6188-18.4237c5.0365-9.7648,7.8658-20.7111,7.9193-31.7303
		c0.0518-11.0198-2.6736-22.022-7.6409-31.882c-4.9663-9.8611-12.1974-18.624-21.1306-25.1776c0,0,0,0-0.0001-0.0001
		c-16.8418-12.322-38.2277-16.6255-58.939-17.9572c-20.7036-1.3588-41.4919-0.1685-61.7732-3.0183
		c-13.5059-1.9049-26.8865-5.6458-38.3585-12.6642c4.7266-1.0808,9.3459-2.6369,13.7689-4.7087l0.0001-0.0001
		c6.8276-3.2117,13.1216-7.6555,18.2791-13.2417c5.1608-5.5903,9.1113-12.3409,11.2209-19.7033
		c1.6525-5.7719,2.1177-11.8946,1.2603-17.8492c5.5829-2.2415,10.6486-5.7118,14.8157-10.0338
		c5.3146-5.5146,9.1774-12.3159,11.4294-19.5832c2.2504-7.2623,2.9425-14.9357,2.3011-22.4537v-0.0001
		c-0.4232-4.8658-1.391-9.6432-2.8239-14.2751c11.822,6.4116,21.7635,16.1171,30.1792,26.851
		c12.6282,16.124,22.0139,34.711,33.5632,51.9475c11.5297,17.2568,25.9692,33.6083,45.0715,42.0098c0.0001,0,0.0001,0,0.0001,0
		c10.1475,4.4473,21.3542,6.3146,32.3766,5.6718c11.022-0.6415,21.9091-3.7956,31.4198-9.3618
		c9.5095-5.5674,17.5651-13.5005,23.4922-22.7518c4.1409-6.4623,7.2517-13.5897,9.1206-21.0171
		c1.6178-1.2347,3.3292-2.1684,4.9755-2.8846c-1.28,6.0944-10.2493,10.2422-7.6392,21.8323
		c9.5425-1.9731,19.8895-14.2542,12.1398-44.0224h-0.0001c-25.1914,22.6628-27.5286,39.9677-17.3647,43.0098
		c-0.0466-9.1304,3.5109-14.5398,7.7527-17.8329c-1.9492,7.3481-5.1173,14.3722-9.2826,20.7213
		c-5.9982,9.142-14.0833,16.9263-23.5499,22.3302c-9.4657,5.4052-20.2535,8.3967-31.1205,8.9127
		c-10.8674,0.5143-21.8628-1.4443-31.7432-5.906c-18.6481-8.3909-32.6233-24.6746-43.9061-41.8654
		c-11.2681-17.2167-20.4659-35.9229-33.1235-52.4829c-8.7855-11.5053-19.4104-21.9705-32.3724-28.826c0,0,0,0-0.0001,0
		c-0.5037-0.2666-1.0125-0.525-1.5236-0.7793c-4.0391-10.59-10.5049-20.2773-18.4796-28.3046
		c-12.4664-12.5555-28.2306-21.3232-44.7219-27.114c-16.4357-5.7836-33.5756-8.8286-50.5829-11.0826h-0.0001
		c-17.09-2.2796-34.1402-3.8267-50.8271-6.6956C948.2107,814.7485,926.6056,808.5066,905.8823,800.0874z M867.3397,599.4092
		c3.2504,2.5367,6.895,4.5624,10.7628,5.9764c7.9498,2.9011,16.7119,3.2429,24.8575,1.1992
		c8.1407-2.0457,15.6042-6.3995,21.5099-12.2806c8.0938-8.0993,13.0792-18.7551,15.1953-29.9088
		c4.6942,7.075,8.1776,15.0393,10.363,23.268v0.0001c4.2302,15.9452,3.7279,32.9969,0.5351,49.4003
		c-3.1984,16.3698-9.1448,32.2041-15.7421,47.8148c-6.6456,15.6873-14.0105,31.2344-20.1788,47.4488v0.0001
		c-8.954,23.5659-15.0189,48.2021-18.2103,73.2236c23.2767,9.7189,47.6533,16.7552,72.5438,20.7538l0.0001,0.0001
		c17.1295,2.7446,34.2778,4.1193,51.1888,6.1873c16.8203,2.0717,33.5099,4.8189,49.2921,10.215
		c15.8087,5.4175,30.8368,13.4903,42.5447,25.1122h0.0001c6.0408,5.9997,11.2047,12.9924,14.994,20.5906
		c-10.722-3.7314-22.4441-4.7277-33.5016-1.7546c-8.0435,2.1836-15.5405,6.4794-21.3752,12.5136
		c-5.8356,6.0395-9.9113,13.8035-11.3636,22.1406c-0.7043,4.0575-0.7673,8.2267-0.1907,12.3093
		c-3.8221,1.5465-7.3987,3.6899-10.5573,6.3326c-6.4873,5.4341-11.1644,12.8515-13.4672,20.9277
		c-2.2988,8.0729-2.26,16.7134-0.1198,24.7685c2.9673,11.0591,9.7029,20.7044,18.3042,28.1139
		c-8.4742,0.5277-17.1132-0.4376-25.3322-2.6594l-0.0001-0.0001c-15.924-4.3091-30.4401-13.27-43.0494-24.2367
		c-12.5775-10.9547-23.3172-24.0217-33.5378-37.5404c-10.2628-13.5989-20.0446-27.7507-31.0024-41.1998h-0.0001
		c-15.9317-19.5374-34.2349-37.1078-54.3084-52.3824c-20.0551,15.2988-38.337,32.8913-54.2452,52.4478l-0.0001,0.0001
		c-10.9417,13.4623-20.7063,27.6258-30.9528,41.2371c-10.2043,13.5311-20.9282,26.611-33.4925,37.5808
		c-12.5961,10.9819-27.1013,19.9603-43.0201,24.2886l-0.0001,0.0001c-8.2162,2.2316-16.8541,3.2074-25.329,2.6899
		c8.5924-7.4198,15.3163-17.0732,18.2703-28.1359c2.1306-8.0576,2.159-16.6982-0.1495-24.7683
		c-2.3126-8.0734-6.9986-15.4851-13.4925-20.9114c-3.1616-2.6388-6.7408-4.778-10.5648-6.3199
		c0.5717-4.0833,0.5037-8.2524-0.2056-12.309c-1.4625-8.3353-5.5475-16.0944-11.3903-22.1269
		c-5.842-6.0272-13.3443-10.3139-21.3903-12.4879c-11.0611-2.9598-22.782-1.9493-33.4995,1.795
		c3.7801-7.6028,8.9357-14.6017,14.9692-20.6086l0.0001-0.0001c11.6938-11.636,26.7122-19.7269,42.5143-25.1635
		c15.7758-5.415,32.462-8.1824,49.2798-10.2744c16.9084-2.0884,34.0551-3.4838,51.1813-6.2491h0.0001
		c24.8857-4.0286,49.2537-11.0944,72.5186-20.8412c-3.2216-25.0177-9.3161-49.6465-18.2985-73.2017v-0.0001
		c-6.1879-16.2069-13.5715-31.7451-20.236-47.4244c-6.616-15.6027-12.5816-31.4299-15.7997-47.7957
		c-3.2126-16.3995-3.7354-33.4506,0.4755-49.4009v-0.0001c2.1755-8.2313,5.6494-16.1998,10.335-23.2805
		c2.1295,11.1512,7.1277,21.801,15.2313,29.8905c5.9128,5.874,13.3816,10.2188,21.5248,12.2547
		c8.1481,2.0339,16.9098,1.6816,24.8561-1.2291C860.4503,603.98,864.0924,601.9498,867.3397,599.4092z M953.2576,772.6971
		c13.5228-46.5479,33.366-91.243,59.3256-132.1839c21.288-33.595,46.4055-64.7411,72.3625-95.1492
		c26.0253-30.4807,52.9731-60.3108,78.2052-91.662c1.2371-1.5366,2.4681-3.0786,3.6959-4.6237
		c-2.599,3.6463-5.2216,7.2773-7.8671,10.8922v0c-25.2606,34.493-52.4337,67.823-78.6171,102.2861
		c-26.1229,34.3488-51.2802,69.966-72.1235,108.5258c-15.9578,29.5859-29.0367,60.6999-39.1732,92.7749
		c32.8547,7.2195,66.3448,11.4094,99.947,12.342c43.8169,1.1762,87.2361-2.8544,130.0378-8.3547
		c42.931-5.4957,85.3739-12.4144,127.8704-17.0955h0.0001c4.4526-0.489,8.908-0.9501,13.3647-1.3831
		c-1.9515,0.2931-3.9022,0.5906-5.8512,0.896c-39.7594,6.2239-79.0568,14.6938-118.4576,22.0396
		c-39.3038,7.3228-78.8284,13.5497-118.5645,15.2361C1048.9795,789.3073,1000.3445,784.2032,953.2576,772.6971z M781.6308,772.8006
		c-47.0729,11.5629-95.7017,16.7256-144.1374,14.7145c-39.7381-1.6384-79.2701-7.8177-118.5828-15.0931
		c-39.4096-7.2982-78.7172-15.7208-118.4841-21.8967c-1.9493-0.303-3.9003-0.5982-5.8522-0.8889
		c4.4573,0.4276,8.9131,0.8833,13.3665,1.3669h0.0001c42.5021,4.6299,84.9532,11.4974,127.8909,16.9413
		c42.8083,5.4487,86.2324,9.4269,130.0479,8.1979c33.6011-0.9731,67.086-5.2034,99.932-12.4625
		c-10.1751-32.0627-23.2916-63.1609-39.285-92.7276c-20.8899-38.5346-46.0901-74.1215-72.2544-108.4387
		c-26.2249-34.4316-53.4381-67.7287-78.7404-102.1912v-0.0001c-2.6498-3.6117-5.2768-7.2395-7.8801-10.8828
		c1.2296,1.5436,2.4626,3.0842,3.7015,4.6193c25.2698,31.3208,52.2537,61.1183,78.3156,91.5676
		c25.9937,30.3768,51.1487,61.4925,72.4772,95.0618C748.1548,681.598,768.0519,726.2691,781.6308,772.8006z M867.5339,921.382
		c33.5502,34.985,62.3356,74.5173,84.8118,117.4694c18.4501,35.2334,32.8647,72.5588,46.2204,110.2423
		c13.3844,37.7788,25.744,76.0315,40.2789,113.5586c0.7123,1.8397,1.4321,3.6769,2.1564,5.5127
		c-1.8584-4.074-3.6917-8.1606-5.4995-12.2592v-0.0001c-17.2415-39.1228-32.5195-79.3203-49.2738-119.2273
		c-16.6854-39.7975-34.9523-79.3929-57.9243-116.7238c-17.6432-28.6129-38.0493-55.4965-60.7589-80.3124
		c-22.6796,24.8433-43.0532,51.7516-60.6619,80.3856c-22.9271,37.3585-41.1461,76.9759-57.7836,116.7935
		c-16.7061,39.9271-31.9357,80.1431-49.13,119.2867l0,0c-1.8029,4.1007-3.6312,8.1896-5.4847,12.2657
		c0.722-1.8367,1.4396-3.6747,2.1497-5.5151c14.4897-37.5447,26.8032-75.8123,40.142-113.6072
		c13.3102-37.6996,27.6797-75.0424,46.0874-110.298C805.2881,995.9744,834.0258,956.4074,867.5339,921.382z M1001.0455,745.0684
		c7.6347-21.8146,16.726-43.1221,27.2819-63.7048c19.1398-37.3995,42.9774-72.6413,68.0652-107.1872
		c25.1803-34.6394,51.7274-68.6579,76.6014-104.1638c14.3461-20.4612,28.0662-41.496,40.5417-63.273
		c43.1376-25.3278,79.3768-61.9175,104.1261-105.0242c25.7625-44.8817,38.979-96.6483,37.9814-148.0401
		c-0.2141-13.1686-1.6118-26.9999-8.4187-38.5455c-3.4175-5.7731-8.2296-10.8025-14.1451-13.9923
		c-5.922-3.1924-12.9742-4.3961-19.4948-2.826c0,0,0,0-0.0001,0c-7.4756,1.8143-13.855,7.3794-16.7419,14.3986
		c-2.4719,4.9154-6.3103,13.8203-5.429,20.2574c1.2789,9.3409,7.5573,14.2328,15.9354,10.7933
		c8.3783-3.44,15.952-13.4797,14.7742-20.0846c-1.1788-6.6044-8.3899-7.0746-12.8429-3.0495
		c-3.6368,3.2871-5.6069,12.0564-10.8721,9.9297c-4.1567-1.6785-1.5093-14.0866-0.2102-19.2374
		c3.222-5.9574,9.1008-10.4572,15.6479-11.8675c6.2306-1.3543,12.9076-0.0076,18.4331,3.134
		c5.5339,3.1455,9.9678,8.0552,13.0931,13.6144c6.2792,11.1195,7.1888,24.4957,7.1615,37.4981
		c-0.2676,50.8257-14.6066,101.3682-40.8125,144.5057c-22.0664,36.3322-52.5426,67.4023-88.1105,90.2478
		c5.4688-10.3456,10.6323-20.8614,15.4214-31.5681c17.7363-39.6116,30.0511-82.12,32.6208-125.6694
		c2.3274-38.6145-3.5667-78.6267-22.3357-112.8289c-9.4131-17.0937-22.0579-32.4884-37.4843-44.4989
		c-5.5419-4.3141-11.4478-8.1694-17.6317-11.4984c-25.1682-25.6576-57.5299-45.3597-92.3264-50.9564
		c-15.5687-2.5102-31.5564-2.7871-47.0356-0.0103c-15.4834,2.7759-30.4327,8.6916-43.0668,17.8481
		c-6.3233,4.585-22.7836,24.7416-27.727,30.7285c13.161,4.1363,34.1322-10.3641,28.3493-29.8274
		c12.8909-8.455,27.7913-13.5065,42.9501-15.5068c15.163-1.9997,30.6086-0.9706,45.5371,2.1468
		c27.993,5.8573,56.1627,18.197,78.0391,36.5756c-16.3193-10.27-33.9688-17.7951-52.1476-20.7125
		c-15.563-2.5034-31.5424-2.7862-47.0176-0.0198c-15.4796,2.7658-30.4307,8.6667-43.0669,17.8148
		c-6.3253,4.5808-12.0475,9.953-16.9935,15.9391c15.2319,8.1634,30.9095-11.3317,33.45-21.0019
		c12.889-8.4599,11.9442-7.5653,27.1053-9.57c15.1655-2.0047,30.6156-0.9838,45.5532,2.1159
		c13.1361,2.7313,26.3287,7.2654,38.9218,13.2691c-1.9355-0.4451-3.8828-0.8416-5.8413-1.1823
		c-20.0125-3.4809-41.0581-1.2257-59.5177,7.1739c-11.7678,5.3598-22.3679,13.27-30.7771,23.0179
		c-1.9766,2.1027-3.8445,4.3073-5.5865,6.6116v0.0001c-9.4485,12.4991-15.1371,27.8901-15.5322,43.5318
		c-0.3936,15.641,4.6205,31.446,14.3739,43.6399c0.0273,0.0341,0.0565,0.0666,0.0839,0.1006
		c8.0028,11.1741,19.2506,19.9706,32.1556,24.468c14.2372,4.9495,30.1665,4.5957,44.095-0.8407
		c5.5643-1.3113,11.064-3.2671,15.9568-6.1403c21.1699-12.4324,32.4817-31.6166,25.0386-47.034
		c-7.4431-15.4175-29.8406-22.2763-44.8199-12.8659c-14.9794,9.4104-16.3301,26.1855-7.4073,32.1362
		c7.2867,4.8596,27.0347,0.353,22.0168,14.4222c-3.5649,9.9969-26.559,16.4181-39.5751,19.2988
		c-5.111-0.1854-10.1968-0.9749-15.1055-2.39c-4.3259-1.2468-8.5039-2.9814-12.46-5.1247
		c-11.9175-8.0659-21.1188-20.1935-25.6923-33.7597c-6.1377-18.1627-4.1621-38.7623,4.4269-55.7716
		c8.5886-17.0316,23.6803-30.5475,41.1278-38.071c17.4612-7.5377,37.3014-9.175,55.9393-5.5487
		c17.9716,3.4946,34.9077,11.8603,49.1281,23.3939c0,0,0,0,0,0c5.8501,4.7442,11.2396,10.0384,16.1606,15.7497
		c0.2002,0.2484,0.4077,0.4932,0.6057,0.7427l0.0051,0.0002l0.027-0.0057c6.7788,7.9839,12.6403,16.7726,17.5127,26.0552
		c17.1155,32.4853,21.6935,70.6439,18.8385,107.5803c-3.2806,41.7106-16.105,82.3785-34.0393,120.4211
		c-2.0057,4.2506-4.0784,8.4688-6.2065,12.6598c-17.421,30.6897-38.334,59.3858-60.7164,86.8005
		c-7.8118,9.5654-15.795,18.9944-23.8722,28.3535c11.7253-24.3502,16.9208-47.2985,13.9191-75.1732
		c-3.4015-31.5021-16.5239-61.7282-37.0481-85.6132c-20.5935-23.8703-47.4652-40.8092-74.5305-55.7692
		c-27.0402-14.9924-54.8359-28.5239-79.2272-47.0374c-15.3777-11.7121-29.7206-25.8342-36.3682-43.8265
		c-3.3322-8.9879-4.6584-18.824-3.0612-28.2848c1.5954-9.4538,6.1945-18.5357,13.4221-24.898
		c5.038-4.4397,11.2958-7.5207,17.9249-8.8046c0.547-0.106,1.097-0.1951,1.6484-0.2767c-0.1136,0.0503-0.179,0.0804-0.179,0.0804
		l0.0013-0.0003c0,0,16.5662-1.7937,18.9494,3.6577c2.3831,5.4515-5.1833,5.6963-7.7427,8.5692
		c-3.1341,3.5179-2.0294,10.5259,3.9236,12.8964c5.9526,2.3702,14.1075-3.0136,16.3493-10.4077
		c2.241-7.3941-2.685-14.3366-11.0676-17.3169c-6.6401-2.3608-15.5637,0.6492-18.989,2.0033
		c-0.9936,0.092-1.9845,0.218-2.9688,0.388c-6.7274,1.1625-13.1491,4.1531-18.39,8.5863
		c-7.5139,6.3609-12.4459,15.5589-14.2788,25.2743c-1.8318,9.7122-0.6962,19.8761,2.5652,29.2158
		c6.54,18.6596,20.8857,33.533,36.303,45.6726c1.2886,1.0181,2.5886,2.0193,3.8956,3.0103l-76.0815-33.4606l76.8281,37.7016
		c-3.2491-0.7431-6.551-1.1808-9.9011-1.2283c-16.715-0.2259-33.2609,4.9765-46.6757,14.5197
		c-13.4108,9.5499-23.5377,23.3316-28.6366,38.7186c-5.0942,15.3883-5.1161,32.2496-0.2108,47.4336
		c2.8742,8.893,4.742,13.8222,10.5874,21.0053c-5.4847-7.4619-6.8884-12.5345-9.2774-21.3934
		c-4.0782-15.1188-3.1782-31.4312,2.3815-45.7987c5.5549-14.3699,15.7703-26.8078,28.5349-34.9722
		c12.7603-8.1711,28.1182-12.1044,42.9874-11.1587c9.6594,0.6074,20.9584,0.754,30.7722,3.3552
		c17.4388,11.0953,35.7155,20.8787,53.4776,31.1887c26.5601,15.4637,52.5909,32.5506,71.7202,55.8336
		c19.1272,23.1829,30.9907,52.2481,33.5841,81.9959c2.3961,27.3826-2.9701,60.6886-15.2476,85.9432
		c-14.8722,17.0077-29.9545,33.8709-44.7832,50.988v0.0001c-1.3983,1.6137-2.7933,3.2313-4.187,4.8504
		c6.7511-21.0824,8.6714-43.6935,5.0399-65.4656c-3.0194-18.3306-10.0831-36.4253-22.4814-50.5235
		c-6.2139-7.0414-13.7468-12.9613-22.2268-17.0518c-8.4845-4.0923-17.9102-6.2747-27.3303-6.0078
		c-10.0613,0.2999-19.9187,3.4089-28.3812,8.6711c-8.4592,5.2626-15.5044,12.6122-20.5776,21.084
		c-10.1273,16.9511-12.1102,37.9572-7.2071,56.8001c4.7416,18.2443,15.7548,34.7067,30.6457,45.9919
		c14.1232-36.9344-16.1013-36.1759-29.2454-46.3369c-4.3227-18.6203-1.8146-39.0245,8.3017-54.9173
		c5.0534-7.9582,11.9254-14.7564,19.9841-19.4766c8.055-4.7197,17.3187-7.3731,26.5546-7.3976
		c8.6504-0.0373,17.2777,2.2235,24.9802,6.1718c7.7072,3.9501,14.5125,9.6167,20.0997,16.2657
		c11.2008,13.279,17.2633,30.4377,19.7605,47.8274c0.5619,3.9729,0.9244,7.9701,1.098,11.9747
		c-1.2335-4.7101-2.9281-9.2904-5.0728-13.6496c-7.0599-14.3213-18.8375-26.0259-32.9323-32.9539
		c-5.506-2.7157-11.4362-4.7184-17.5904-5.5623c-6.16-0.8463-12.5345-0.4439-18.4725,1.5011
		c-5.947,1.9482-11.3722,5.5269-15.2521,10.4221c-3.8845,4.9063-6.0616,11.1336-5.7814,17.3326
		c0.2009,4.2386,1.5538,8.3749,3.8531,11.8741c2.3004,3.4985,5.5304,6.3335,9.2411,8.1491
		c3.7108,1.8149,7.881,2.5997,11.9428,2.2768c4.0618-0.3233,7.9994-1.7531,11.2845-4.0674
		c-3.3992,2.1431-7.3572,3.3398-11.3179,3.4511c-3.9607,0.1118-7.9237-0.8612-11.3401-2.7556
		c-3.4164-1.8935-6.2925-4.7113-8.239-8.0329c-1.9475-3.321-2.9736-7.1583-2.9568-10.952
		c0.0111-5.5423,2.2964-10.9903,5.9081-15.1242c3.6174-4.1463,8.6029-7.0258,13.8975-8.4846
		c5.3041-1.4625,10.9748-1.4928,16.4136-0.4804c5.446,1.0154,10.6885,3.1194,15.5973,5.8401
		c12.5232,6.9654,22.582,18.1616,28.1356,31.0886c4.4681,16.0311,8.6132,25.9658,11.7537,32.0912
		c-1.3262,10.4686-3.8903,20.7822-7.584,30.639c-2.6315,7.0068-5.3174,14.0859-8.3687,20.9335
		c-18.3597,22.1952-35.9164,45.1082-51.5714,69.402c-28.1791,43.759-49.4661,91.8341-63.5707,141.9771
		c50.4929,12.7957,102.7773,18.3351,154.7603,15.7481c28.8649-1.4455,57.4818-5.228,85.8776-10.0647
		c7.4567,0.7723,14.9318,1.9769,22.3171,3.1923c10.3853,1.7171,20.6025,4.6409,30.3367,8.715
		c3.7415,5.778,10.283,14.3271,21.9465,26.1982c8.4319,11.2629,13.1158,25.5666,12.9038,39.895
		c-0.0914,5.6116-0.8838,11.2047-2.7212,16.4309c-1.8363,5.2186-4.6919,10.1178-8.606,13.9848
		c-3.9059,3.8606-8.8889,6.7444-14.2872,7.8105c-5.3846,1.0674-11.2462,0.3295-16.0549-2.4262
		c-3.296-1.8784-6.1096-4.6822-8.016-8.027c-1.9073-3.3442-2.9143-7.2426-2.8506-11.1481c0.0629-3.906,1.197-7.8259,3.2701-11.2026
		c2.0726-3.3769,5.0846-6.21,8.6379-8.0865c-3.6448,1.6921-6.8485,4.3912-9.1554,7.75c-2.3065,3.3589-3.7072,7.3645-3.9858,11.486
		c-0.278,4.1217,0.5673,8.3354,2.4514,12.0746c1.8851,3.7386,4.7948,6.9749,8.3678,9.2639
		c5.2324,3.3359,11.7155,4.5563,17.9056,3.6379c6.1782-0.92,11.9866-3.8359,16.6422-8.0178
		c4.6484-4.1755,8.1777-9.499,10.5178-15.2598c2.3394-5.7545,3.5626-11.893,3.9564-18.0197
		c1.0286-15.6716-3.2385-31.7185-12.1271-44.9825c-2.7078-4.0337-5.8317-7.7875-9.2981-11.2068
		c3.3839,2.1487,6.667,4.4573,9.8297,6.9265c13.8245,10.8408,25.6698,24.6562,31.589,40.9887
		c2.9745,8.1597,4.4897,16.8847,4.0674,25.5349c-0.4215,8.6452-2.7668,17.2499-7.1154,24.728
		c-4.6295,7.9918-11.5513,14.696-19.6605,19.3218c-8.1117,4.6288-17.432,7.1921-26.8502,7.6008
		c-18.8206,0.8373-37.755-7.1699-51.735-20.2068c-2.2474-16.4609,13.4905-42.2758-25.5647-48.4649
		c2.3501,18.5356,11.1219,36.2939,24.567,49.5063c13.8834,13.6509,33.0773,22.4136,52.8207,22.0948
		c9.8732-0.1696,19.7578-2.608,28.5393-7.3132c8.7828-4.7081,16.3955-11.6996,21.6755-20.2693
		c4.9316-8.0306,7.7433-17.288,8.4301-26.6828c0.6862-9.39-0.6855-18.872-3.6874-27.7705
		c-6.0317-17.7791-18.1886-32.9291-32.5679-44.692c-17.0564-14.0104-37.6099-23.6282-59.249-28.2966
		c2.0985-0.4,4.1965-0.8019,6.2927-1.2086v0.0001c22.233-4.3104,44.3726-8.967,66.5323-13.3696
		c28.0122,1.9609,59.5537,13.9285,82.0886,29.6678c24.4863,17.0903,43.7557,41.8738,54.303,70.0173
		c10.6332,28.1951,12.4529,59.2798,12.6018,90.0131c0.0724,20.5374-0.5682,41.2579,0.3461,61.9069
		c-2.6425,9.8028-8.1531,19.668-12.4463,28.3422c-6.5995,13.3579-17.6711,24.705-31.1193,31.6864
		c-13.4445,6.9884-29.3204,9.6354-44.5455,7.2795c-15.2252-2.3506-29.811-9.7097-40.8787-20.7876
		c-6.4852-6.4906-10.1809-10.2382-13.911-18.7145c3.3085,8.6499,6.6483,12.728,12.9211,19.6561
		c10.7113,11.8273,25.3347,20.2213,41.2125,23.4845c15.8789,3.2585,32.8754,1.3588,47.8429-5.4984
		c14.9639-6.8639,27.728-18.6073,35.8723-33.2057c1.6302-2.927,2.8984-6.007,3.8756-9.1935l-5.6604,85.3928l8.9634-82.6298
		c0.2068,1.6272,0.4258,3.2533,0.665,4.8781c2.8281,19.4182,8.5599,39.2716,21.4677,54.2498
		c6.4668,7.4866,14.7085,13.542,24.0393,16.8004c9.3342,3.2592,19.7662,3.5743,29.0278,0.2363
		c6.4569-2.3298,12.2528-6.403,16.6169-11.6531c0.6384-0.7682,1.2421-1.564,1.8176-2.3793
		c2.8824-2.2927,9.9436-8.5243,11.2107-15.4568c1.5997-8.7516-1.959-16.4845-9.4851-18.2318
		c-7.5265-1.7465-16.2611,2.6345-17.1771,8.9758c-0.916,6.3418,4.6061,10.7958,9.2186,9.835
		c3.7667-0.7845,7.7542-7.2197,11.2896-2.4344c3.5353,4.7854-6.285,18.2472-6.285,18.2472l-0.0009,0.001
		c0,0,0.0587-0.0416,0.1591-0.115c-0.3458,0.4371-0.6975,0.8694-1.0623,1.2905c-4.4204,5.1044-10.2128,8.9902-16.5741,11.1411
		c-9.12,3.0891-19.2854,2.5433-28.2743-0.791c-8.996-3.3363-16.8585-9.3934-22.985-16.7659
		c-12.2759-14.7384-17.358-34.2145-19.8352-53.3851c-3.8741-30.3756-1.7322-61.2158-1.2332-92.13
		c0.5397-30.92-0.7323-62.6595-11.1437-92.4166c-10.4587-29.7044-30.1061-56.1581-55.7095-74.8242
		c-22.6593-16.5096-45.1393-23.4572-72.0922-25.4453c12.1409-2.3301,24.2957-4.544,36.483-6.5413
		c34.9261-5.7185,70.2297-9.5242,105.5186-9.309c4.6938,0.2468,9.3837,0.5554,14.0681,0.9379
		c41.9171,3.4391,83.5598,12.6166,121.3444,30.5853c33.4346,15.9554,64.2196,38.9623,83.8324,70.0037
		c5.6134,8.8541,10.3054,18.319,13.8422,28.1774l-0.0184,0.0204l-0.0023,0.0046c0.1173,0.2961,0.226,0.5981,0.3413,0.8955
		c2.4941,7.1144,4.3932,14.4266,5.5857,21.8636c0,0,0,0,0,0.0001c2.9,18.0785,1.6996,36.9299-4.2389,54.2482
		c-6.1569,17.9615-17.4752,34.3386-32.72,45.71c-15.2256,11.3666-34.4689,17.7017-53.5143,16.6467
		c-19.0262-1.0434-37.8643-9.6096-50.542-23.991c-9.4749-10.7325-15.394-24.7577-16.4379-39.1103
		c0.1165-4.4978,0.6979-8.984,1.7758-13.3551c1.2229-4.9601,3.0762-9.7615,5.4657-14.2833
		c8.991-9.8428,26.0288-26.5662,36.4711-24.6676c14.6965,2.6713,0.9376,17.5369,1.5133,26.2764
		c0.705,10.7018,15.9167,17.9013,31.5461,9.6151s20.8606-31.1186,11.2131-45.2617c-9.6473-14.1431-31.917-13.9119-53.254-1.7688
		c-4.9313,2.8066-9.3702,6.5969-13.2831,10.7648c-11.661,9.3583-19.9158,22.9866-22.73,37.7944
		c-2.5416,13.4279-0.5304,27.5646,5.1603,40.0754c0.0159,0.0407,0.0294,0.0822,0.0454,0.1229
		c5.7009,14.5368,16.8964,26.7681,30.6476,34.2312c13.7527,7.462,29.9292,10.2115,45.4757,8.2598l0.0001,0.0001
		c2.8662-0.36,5.7087-0.8788,8.5172-1.5427c12.6436-2.4238,24.7878-7.6633,35.3043-15.1874
		c16.4899-11.8065,28.9451-28.92,35.9138-48.0002c0.6819-1.8673,1.3099-3.7527,1.8899-5.6522
		c-1.0803,13.909-3.7335,27.6044-7.9209,40.3514c-4.7667,14.4919-11.5909,28.3908-20.8953,40.5334
		c-9.302,12.1388-8.0553,11.7664-21.8179,18.7152c-9.6481-2.6233-34.3655,1.2362-34.8909,18.5098
		c7.6555-1.2996,15.1663-3.5781,22.2922-6.7742c14.233-6.3864,26.8068-16.399,36.9272-28.4341
		c10.1189-12.031,17.8468-26.0203,23.4425-40.7567c6.5421-17.21,8.827-36.2601,8.0692-55.5272
		c5.0122,28.1287,1.6506,58.6984-7.2405,85.8804c-4.7471,14.4929-11.5619,28.3919-20.8606,40.5349
		c-9.297,12.139-21.1094,22.5316-34.8688,29.4846c-13.9819-14.7229-37.0121-3.7838-39.9943,9.6857
		c7.655-1.2969,33.3362-5.5045,40.4647-8.6968c14.2391-6.3804,26.825-16.3843,36.9562-28.4175
		c10.1298-12.0293,17.8669-26.0227,23.4597-40.7676c12.5116-32.9481,11.5842-70.8242,1.9065-105.4376
		c0.2004-7.0202-0.1938-14.0621-1.1674-21.0174c-2.7115-19.3615-9.7439-38.0012-19.8611-54.6878
		c-20.2755-33.3311-52.0104-58.4033-86.6361-75.6533c-39.0233-19.5021-82.0067-30.0396-125.1849-34.4332
		c-11.6682-1.1918-23.3579-1.9638-35.0524-2.3865c37.5454-19.4252,79.6777-30.3341,122.1744-31.3293
		c50.4597-1.1871,101.4158,11.6048,145.5963,36.7327c11.2817,6.4639,22.4202,13.9263,28.9236,24.9162
		c3.2583,5.4823,5.3009,11.7744,5.2657,18.1398c-0.0344,6.3561-2.1989,12.8146-6.4813,17.5384
		c-4.4889,4.9703-11.3218,7.8198-18.0923,7.6396c-5.1119-1.4442-17.1862-5.3409-16.5668-9.7808
		c0.7839-5.624,9.3667-2.9559,14.03-4.4675c5.7101-1.8508,8.9006-8.3347,3.7653-12.6516
		c-5.1364-4.3163-17.616-2.7621-24.7776,2.7824c-7.161,5.5445-6.0542,13.4263,1.4028,19.1954
		c5.1388,3.9756,14.7711,5.0923,20.2644,5.4026c7.5234,1.0003,15.5293-1.7515,20.8317-7.3248c0,0,0,0,0,0
		c4.6141-4.8675,7.0897-11.5798,7.278-18.3049c0.1873-6.7181-1.7704-13.3978-5.0682-19.2401
		c-6.6095-11.6597-17.8987-19.7722-29.2041-26.5283c-44.0398-26.5067-95.4967-40.8821-147.2467-40.9497
		c-49.7063-0.0599-99.4978,13.0894-142.9712,37.8362c-25.0974-0.054-50.1724,1.3407-75.0626,3.5642
		c-43.1815,3.8407-85.9087,9.8734-128.4921,14.4118c-42.4561,4.5049-84.8915,7.5792-126.8528,5.5056
		C1046.7617,752.0892,1023.7599,749.3364,1001.0455,745.0684z M733.8097,745.2295c-22.7093,4.2954-45.7078,7.0759-68.811,8.2255
		c-41.9587,2.1242-84.3979-0.8989-126.8594-5.3526c-42.5887-4.4871-85.3232-10.4682-128.5092-14.2568
		c-24.893-2.1935-49.9696-3.558-75.0669-3.4737c-43.5033-24.6943-93.3105-37.7836-143.0167-37.6638
		c-51.7499,0.1299-103.1894,14.5674-147.1972,41.1273c-11.2973,6.7697-22.5767,14.8958-29.1721,26.5635
		c-3.2909,5.8462-5.2404,12.5284-5.0451,19.2462c0.1963,6.7248,2.68,13.4341,7.3,18.296c0,0,0,0,0,0
		c5.3091,5.567,13.3182,8.3091,20.8405,7.2997c5.4928-0.3169,15.1239-1.4453,20.2579-5.4271
		c7.45-5.7781,8.5474-13.6613,1.3796-19.1971c-7.1683-5.5359-19.6497-7.0751-24.7809-2.7526
		c-5.1302,4.3231-1.9319,10.8031,3.7805,12.647c4.6651,1.5059,13.2446-1.1725,14.0354,4.4506
		c0.6247,4.4391-11.4447,8.3504-16.555,9.8007c-6.7703,0.1884-13.6066-2.6529-18.1015-7.6177
		c-4.2882-4.7187-6.4603-11.1745-6.5024-17.5306c-0.0428-6.3653,1.9922-12.6599,5.2439-18.1461
		c6.4901-10.9977,17.6195-18.4736,28.8935-24.9511c44.1501-25.1811,95.0907-38.0344,145.5519-36.9081
		c42.4979,0.9439,84.6433,11.8021,122.2121,31.1819c-11.6939,0.4368-23.3827,1.2229-35.0495,2.4288
		c-43.1728,4.4457-86.1435,15.035-125.1434,34.5842C118.89,785.0953,87.1854,810.2058,66.95,843.5614
		c-10.097,16.6988-17.1069,35.3469-19.795,54.7117c-0.9651,6.9564-1.351,13.9988-1.142,21.0187
		c-9.636,34.6251-10.5178,72.5022,2.0336,105.4352c5.6105,14.738,13.3645,28.7223,23.5089,40.7393
		c10.1457,12.021,22.7435,22.0098,36.9904,28.3729c7.1324,3.1836,32.8186,7.3604,40.4752,8.6479
		c-2.9984-13.4658-26.0417-24.3772-40.0059-9.6375c-13.7677-6.9364-25.5926-17.3147-34.9043-29.4425
		c-9.3133-12.1317-16.1449-26.0226-20.9094-40.5097c-8.924-27.1713-12.3223-57.7368-7.3441-85.8716
		c-0.7345,19.2679,1.5733,38.3153,8.1362,55.5173c5.6135,14.7296,13.3582,28.7095,23.4916,40.7283
		c10.135,12.0228,22.7208,22.0204,36.9615,28.3896c7.1298,3.1874,14.6433,5.4569,22.3004,6.7472
		c-0.5462-17.2729-25.2683-21.1025-34.9131-18.4677c-13.771-6.9323-12.5239-6.5613-21.8405-18.689
		c-9.3189-12.1313-16.1598-26.022-20.9441-40.5082c-4.2027-12.7419-6.8723-26.4341-7.9695-40.3418
		c0.5823,1.8987,1.2125,3.7834,1.8967,5.6499c6.9917,19.0718,19.4675,36.1702,35.9716,47.9568
		c10.5256,7.5114,22.6762,12.7363,35.3226,15.1448c2.8093,0.6605,5.6525,1.1759,8.5191,1.5324l0.0001-0.0001
		c15.5488,1.933,31.722-0.836,45.4657-8.3146c13.7422-7.4797,24.9228-19.7245,30.6063-34.2682
		c0.0159-0.0406,0.0294-0.0822,0.0452-0.1229c5.6757-12.5177,7.6698-26.6569,5.112-40.0817
		c-2.8322-14.8044-11.1032-28.4228-22.7756-37.767c-3.9178-4.1632-8.3614-7.9481-13.2961-10.7488
		c-21.3517-12.1174-43.6216-12.3217-53.2518,1.833c-9.6303,14.1547-4.3716,36.9808,11.2677,45.2481s30.8424,1.0496,31.5345-9.6531
		c0.5652-8.7403-13.2116-23.5892,1.4816-26.2783c10.44-1.9111,27.498,14.7917,36.5008,24.6236
		c2.395,4.519,4.254,9.3181,5.4829,14.2768c1.0832,4.3698,1.67,8.8553,1.7919,13.3529
		c-1.0265,14.3539-6.9287,28.3862-16.3906,39.1301c-12.6605,14.3967-31.4881,22.9857-50.5131,24.052
		c-19.0441,1.0779-38.295-5.234-53.5343-16.5822c-15.2584-11.353-26.5965-27.7164-32.775-45.6705
		c-5.9593-17.3111-7.1825-36.1611-4.3043-54.243c0-0.0001,0-0.0001,0-0.0001c1.1836-7.4385,3.0737-14.753,5.5593-21.8704
		c0.115-0.2976,0.2233-0.5997,0.3403-0.8959l-0.0024-0.0046l-0.0184-0.0204c3.5248-9.8626,8.2054-19.3331,13.8081-28.194
		c19.5754-31.0651,50.3327-54.109,83.748-70.1048c37.7628-18.0142,79.3944-27.2419,121.3074-30.7316
		c4.684-0.3882,9.3734-0.7023,14.067-0.9548c35.2885-0.2579,70.5966,3.5053,105.5296,9.1817
		c12.1898,1.9825,24.3472,4.1818,36.491,6.4973c-26.9505,2.0206-49.4221,8.9954-72.0615,25.5322
		c-25.5808,18.6968-45.1962,45.1743-55.6191,74.8912c-10.3755,29.7697-11.6093,61.5107-11.0323,92.43
		c0.5363,30.9136,2.7155,61.7512-1.122,92.1315c-2.4541,19.1736-7.5128,38.6558-19.7708,53.4089
		c-6.1176,7.3798-13.9728,13.4464-22.9648,16.7936c-8.985,3.3452-19.1497,3.9032-28.2734,0.8251
		c-6.3639-2.1432-12.161-6.0221-16.5875-11.1211c-0.3653-0.4208-0.7175-0.8525-1.0638-1.2892
		c0.1004,0.0731,0.1592,0.1149,0.1592,0.1149l-0.0009-0.0011c0,0-9.8365-13.45-6.307-18.2395
		c3.5296-4.7897,7.5248,1.6407,11.2925,2.4208c4.6137,0.9552,10.1304-3.5054,9.2068-9.8462
		c-0.9237-6.3401-9.6636-10.7106-17.188-8.955c-7.5239,1.7562-11.0733,9.4935-9.4631,18.2432
		c1.2755,6.931,8.3441,13.1541,11.2294,15.4434c0.5765,0.8145,1.181,1.6095,1.8204,2.3771
		c4.3705,5.2448,10.1713,9.3109,16.631,11.6329c9.2657,3.3269,19.6973,2.999,29.0276-0.2712
		c9.3269-3.2698,17.5613-9.3352,24.019-16.8295c12.8896-14.9937,18.5976-34.854,21.4022-54.2756
		c0.2374-1.625,0.4544-3.2515,0.6593-4.8788l9.063,82.6188l-5.7634-85.3859c0.981,3.1854,2.2529,6.2638,3.8867,9.1888
		c8.1619,14.5885,20.9402,26.3165,35.9123,33.1624c14.9758,6.8392,31.9746,8.7185,47.8496,5.4408
		c15.8737-3.2825,30.4871-11.6941,41.1841-23.5343c6.2645-6.9357,9.5994-11.0178,12.8975-19.6716
		c-3.7198,8.4808-7.4111,12.2328-13.8885,18.7312c-11.0542,11.0913-25.6312,18.4679-40.8536,20.8369
		c-15.2221,2.3743-31.1013-0.2535-44.5543-7.2258c-13.4565-6.9652-24.5418-18.2988-31.1574-31.6489
		c-4.3036-8.6689-9.8262-18.5275-12.4804-28.3271c0.8894-20.6501,0.2238-41.3698,0.2714-61.9073
		c0.1119-30.7335,1.8941-61.8204,12.4933-90.0283c10.5133-28.1561,29.7528-52.9628,54.2185-70.0827
		c22.516-15.7664,54.043-27.7721,82.0528-29.7667c22.1651,4.3759,44.3102,9.0058,66.5485,13.2893l0,0
		c2.0967,0.4041,4.1951,0.8034,6.2941,1.2009c-21.6335,4.6945-42.1753,14.337-59.2148,28.368
		c-14.3651,11.7802-26.5037,26.9449-32.5139,44.7312c-2.9911,8.9021-4.3514,18.3857-3.6539,27.775
		c0.6982,9.3939,3.521,18.648,8.4622,26.6726c5.2903,8.5634,12.9115,15.5457,21.7,20.2432
		c8.7872,4.6946,18.6747,7.121,28.5481,7.2787c19.7437,0.2949,38.927-8.4909,52.7939-22.1585
		c13.4292-13.2285,22.1795-30.9974,24.5073-49.5359c-39.0478,6.2362-23.2786,32.032-25.5063,48.4957
		c-13.9643,13.0537-32.8889,21.0837-51.7106,20.2691c-9.4187-0.3973-18.7421-2.9494-26.8593-7.5684
		c-8.1149-4.616-15.0447-11.3119-19.6838-19.2981c-4.3575-7.4728-6.7133-16.0746-7.1452-24.7194
		c-0.4327-8.6497,1.072-17.3765,4.0366-25.5398c5.8995-16.3396,17.7282-30.1693,31.5396-41.0267
		c3.1597-2.473,6.44-4.7856,9.8213-6.9384c-3.4623,3.4235-6.5816,7.1811-9.2845,11.218
		c-8.8726,13.2748-13.1203,29.3268-12.0728,44.9972c0.4012,6.1261,1.6318,12.2632,3.9781,18.0148
		c2.347,5.7579,5.8828,11.0772,10.5362,15.2471c4.6606,4.1762,10.4725,7.0852,16.6518,7.9977
		c6.1913,0.9109,12.6728-0.3173,17.9012-3.6595c3.5703-2.2933,6.476-5.5331,8.3567-9.2739
		c1.8796-3.7415,2.7198-7.9562,2.4368-12.0775c-0.2837-4.1212-1.6891-8.1251-3.9996-11.4812
		c-2.3109-3.3561-5.518-6.0512-9.1648-7.739c3.5555,1.8723,6.571,4.7017,8.6477,8.0761c2.0771,3.3741,3.216,7.2927,3.2836,11.1985
		c0.0684,3.9055-0.9339,7.8051-2.8372,11.1516c-1.9023,3.347-4.7125,6.1543-8.0063,8.0366
		c-4.8053,2.7615-10.6661,3.5064-16.052,2.4456c-5.3996-1.0596-10.386-3.9374-14.2967-7.7933
		c-3.9186-3.8622-6.7802-8.758-8.6228-13.9744c-1.8437-5.2241-2.6428-10.8161-2.7409-16.4277
		c-0.2294-14.3281,4.4373-28.6374,12.8557-39.9105c11.6492-11.8851,18.1804-20.4421,21.9149-26.2246
		c9.7292-4.0859,19.943-7.022,30.3262-8.7516c7.3839-1.2244,14.8575-2.438,22.3132-3.2192
		c28.4016,4.8024,57.023,8.5504,85.8896,9.9611c51.9859,2.5244,104.2637-3.0782,154.7411-15.9347
		c-14.165-50.126-35.51-98.1754-63.7419-141.9004c-15.6843-24.275-33.2685-47.1667-51.655-69.3398
		c-3.0596-6.8438-5.7539-13.9197-8.3939-20.9233c-3.7056-9.8525-6.2822-20.1628-7.6209-30.6299
		c3.1331-6.1292,7.2661-16.0689,11.715-32.1053c5.538-12.9337,15.5834-24.142,28.0981-31.1225
		c4.9055-2.7267,10.1454-4.837,15.5902-5.8589c5.4376-1.019,11.1082-0.9955,16.4141,0.4606
		c5.2963,1.4524,10.2853,4.3259,13.9078,8.4678c3.6166,4.1295,5.9085,9.5748,5.9263,15.1171
		c0.0213,3.7936-1.0001,7.6322-2.9436,10.9555c-1.9424,3.3239-4.8151,6.1452-8.2292,8.0428
		c-3.4141,1.8985-7.376,2.8763-11.3368,2.7693c-3.9608-0.1065-7.9203-1.2985-11.3221-3.4374
		c3.2878,2.3104,7.2271,3.7354,11.2894,4.0538c4.0621,0.318,8.2314-0.4718,11.9401-2.2912c3.7084-1.8201,6.935-4.6589,9.2312-8.1602
		c2.2951-3.5019,3.6429-7.6399,3.8387-11.8787c0.2728-6.1994-1.9119-12.424-5.8022-17.3257
		c-3.8858-4.8905-9.3153-8.4627-15.2646-10.4037c-5.9403-1.9379-12.3153-2.3326-18.4742-1.4788
		c-6.1532,0.8513-12.081,2.8612-17.5837,5.5835c-14.0863,6.945-25.8498,18.6639-32.8925,32.9937
		c-2.1394,4.3618-3.8284,8.9441-5.0563,13.6557c0.1689-4.0049,0.5266-8.0024,1.0837-11.976
		c2.4762-17.3927,8.518-34.5588,19.7028-47.8513c5.5793-6.6557,12.3777-12.3305,20.0801-16.2899
		c7.6978-3.9576,16.3223-6.2287,24.9728-6.2019c9.2358,0.0134,18.5027,2.6556,26.5634,7.3656
		c8.0645,4.7105,14.9446,11.5004,20.0076,19.4525c10.1354,15.8805,12.6682,36.2817,8.3679,54.9072
		c-13.1319,10.1768-43.3572,9.4548-29.1895,46.3722c14.8773-11.3031,25.8705-27.7788,30.5901-46.0288
		c4.8804-18.8489,2.8721-39.8525-7.2756-56.7914c-5.0834-8.4657-12.1375-15.8068-20.603-21.0592
		c-8.4688-5.252-18.3299-8.3492-28.3915-8.6369c-9.4205-0.2556-18.8435,1.9382-27.323,6.0407
		c-8.4751,4.1008-16.0009,10.0298-22.2063,17.0786c-12.3812,14.1131-19.4232,32.2163-22.4205,50.5506
		c-3.6052,21.7765-1.6577,44.3852,5.1189,65.4594c-1.3957-1.6174-2.7927-3.2333-4.1929-4.8453v-0.0001
		c-14.8494-17.0992-29.9519-33.9442-44.8446-50.9339c-12.3079-25.2397-17.7144-58.5392-15.3512-85.9247
		c2.5575-29.7509,14.3859-58.8304,33.4852-82.0363c19.1011-23.3061,45.1115-40.4244,71.6528-55.9201
		c17.7497-10.3314,36.0145-20.1368,53.4399-31.2531c9.8107-2.613,21.1096-2.7732,30.7682-3.3923
		c14.8681-0.9637,30.2307,2.9511,43.0008,11.1068c12.7745,8.1491,23.0048,20.5746,28.5771,34.9378
		c5.577,14.3608,6.4968,30.6721,2.4368,45.7958c-2.3784,8.8617-3.776,13.936-9.2516,21.4045
		c5.8367-7.1902,7.6985-12.1216,10.5621-21.0181c4.887-15.1899,4.8448-32.0512-0.268-47.4333
		c-5.1175-15.3809-15.261-29.1504-28.6833-38.6841c-13.4263-9.527-29.9784-14.7095-46.6931-14.4634
		c-3.35,0.0516-6.6514,0.4933-9.8996,1.2403l76.7825-37.7943l-76.0411,33.5524c1.3057-0.9927,2.6046-1.9954,3.8919-3.015
		c15.4026-12.1582,29.7303-27.0489,36.2479-45.7164c3.2502-9.3436,4.3735-19.5089,2.53-29.2188
		c-1.8446-9.7132-6.7877-18.9052-14.3093-25.2571c-5.2462-4.4269-11.6715-7.4097-18.4003-8.5641
		c-0.9846-0.1688-1.9755-0.2936-2.9693-0.3844c-3.4268-1.35-12.354-4.3493-18.9913-1.9804
		c-8.379,2.9905-13.2966,9.9389-11.0467,17.3303c2.2508,7.3914,10.4121,12.7653,16.3619,10.388
		c5.9501-2.3776,7.0464-9.3869,3.908-12.9011c-2.5629-2.8698-10.1296-3.1055-7.7531-8.5599
		c2.3766-5.4543,18.9449-3.6806,18.9449-3.6806l0.0014,0.0003c0,0-0.0656-0.03-0.1792-0.0802
		c0.5515,0.0809,1.1017,0.1694,1.6488,0.2747c6.6307,1.276,12.8921,4.3494,17.9355,8.783
		c7.2352,6.3536,11.8453,15.4299,13.4521,24.8818c1.6087,9.4589,0.2943,19.2966-3.0271,28.2885
		c-6.6259,18.0004-20.9517,32.1397-36.3152,43.8704c-24.369,18.5429-52.1484,32.1079-79.1704,47.1329
		c-27.0473,14.9926-53.8986,31.964-74.4633,55.8591c-20.4954,23.9097-33.5814,54.1516-36.9449,85.6578
		c-2.968,27.8784,2.2551,50.8204,14.0098,75.1564c-8.0884-9.3494-16.0831-18.7687-23.9065-28.3247
		c-22.4154-27.3876-43.363-56.0586-60.821-86.7272c-2.1332-4.1884-4.2109-8.4042-6.2218-12.6523
		c-17.9802-38.0209-30.8536-78.6732-34.1845-120.3799c-2.8995-36.933,1.6325-75.097,18.7087-107.603
		c4.8612-9.2884,10.7121-18.0843,17.4813-26.0763l0.0269,0.0057l0.0051-0.0002c0.1978-0.2497,0.4049-0.4948,0.6049-0.7434
		c4.9142-5.7172,10.2973-11.0179,16.1416-15.7691c0,0,0.0001,0,0.0001,0c14.2064-11.5508,31.1324-19.9369,49.0997-23.4532
		c18.6336-3.6487,38.4758-2.0353,55.946,5.4813c17.4565,7.5025,32.5645,21.0001,41.1736,38.0213
		c8.6096,16.999,10.61,37.5962,4.4942,55.7663c-4.5572,13.5717-13.7438,25.7104-25.6516,33.7907
		c-3.9534,2.1481-8.1293,3.8877-12.4537,5.1397c-4.907,1.421-9.9918,2.2167-15.1026,2.4082
		c-13.0195-2.865-36.0214-9.2585-39.5983-19.2511c-5.0349-14.0632,14.7185-9.5804,21.9994-14.4488
		c8.9156-5.9614,7.5446-22.7349-7.4461-32.1272s-37.3798-2.5065-44.8044,12.92c-7.4246,15.4263,3.9104,34.5968,25.0952,47.0037
		c4.8963,2.8673,10.3983,4.8164,15.9642,6.1211c13.9351,5.4196,29.8648,5.7542,44.0959,0.7876
		c12.8997-4.5129,24.1369-13.323,32.1262-24.5067c0.0273-0.034,0.0565-0.0666,0.0837-0.1007
		c9.7387-12.2056,14.7336-28.0166,14.3213-43.6572c-0.414-15.6412-6.1212-31.0253-15.5847-43.513l-0.0001-0.0001
		c-1.7448-2.3022-3.6155-4.5046-5.5945-6.6048c-8.4208-9.7377-19.0306-17.6352-30.8049-22.9808
		c-18.4696-8.3773-39.5179-10.6072-59.5262-7.1021c-1.9581,0.3431-3.9049,0.7419-5.8398,1.1894
		c12.5857-6.0189,25.7729-10.5689,38.9057-13.3161c14.9338-3.1178,30.3827-4.1573,45.5506-2.1709
		c15.1636,1.9863,14.2177,1.0929,27.1169,9.5373c2.5522,9.667,18.2534,29.1433,33.4753,20.9615
		c-4.9532-5.9801-10.6818-11.3454-17.0126-15.9186c-12.6473-9.1329-27.6054-15.0158-43.0883-17.7629
		c-15.4787-2.7477-31.4577-2.4456-47.0176,0.0765c-18.1754,2.9393-35.8157,10.4857-52.1226,20.7754
		c21.8541-18.405,50.009-30.7787,77.9949-36.6697c14.9247-3.1354,30.3691-4.1832,45.5345-2.2017
		c15.1611,1.982,30.0676,7.0155,42.9688,15.455c-5.7594,19.4702,15.2292,33.9453,28.3853,29.7932
		c-4.9506-5.981-21.4352-26.1177-27.764-30.6951c-12.6451-9.1413-27.6016-15.0389-43.0884-17.7962
		c-15.4825-2.7581-31.4698-2.462-47.0356,0.067c-34.7897,5.6386-67.1276,25.3798-92.2648,51.0677
		c-6.18,3.3364-12.0812,7.1989-17.6179,11.5196c-15.4118,12.029-28.0381,27.439-37.4305,44.544
		c-18.7278,34.2248-24.5736,74.244-22.1996,112.8557c2.6223,43.5463,14.9883,86.0398,32.7724,125.63
		c4.802,10.7009,9.9783,21.2105,15.4594,31.5495c-35.5954-22.8027-66.109-53.8359-88.2192-90.1415
		c-26.2579-43.1059-40.6579-93.6311-40.9868-144.4564c-0.043-13.0023,0.8504-26.3796,7.1163-37.5067
		c3.1187-5.563,7.5465-10.478,13.0766-13.6302c5.5218-3.1482,12.1971-4.503,18.4293-3.1562
		c6.5489,1.4024,12.433,5.8951,15.6623,11.8486c1.3053,5.1492,3.9677,17.5541-0.187,19.2376
		c-5.2625,2.133-7.2432-6.6339-10.8839-9.9166c-4.4579-4.0197-11.6684-3.5409-12.8392,3.065
		c-1.1699,6.6063,6.4159,16.6368,14.7984,20.0668c8.3822,3.4295,14.6547-1.4701,15.9223-10.8125
		c0.8736-6.4382-2.9755-15.3384-5.4533-20.2508c-2.8955-7.0157-9.2816-12.573-16.7594-14.3784c0,0,0,0,0,0
		c-6.5224-1.5622-13.5733-0.35-19.4914,2.8495c-5.9117,3.1969-10.7177,8.2321-14.1283,14.0093
		c-6.7929,11.5538-8.1739,25.3867-8.3721,38.5556c-0.9356,51.393,12.3434,103.1436,38.1599,147.9942
		c24.8013,43.0769,61.0846,79.6229,104.2527,104.8986c12.502,21.762,26.2473,42.7802,40.618,63.2241
		c24.9169,35.4759,51.5049,69.4624,76.727,104.0714c25.1295,34.5156,49.0095,69.7286,68.1944,107.105
		C717.0318,702.1276,726.1487,723.4241,733.8097,745.2295z M867.5671,976.5819c15.0746,17.5191,28.9818,36.0461,41.529,55.4792
		c22.819,35.2753,41.4205,73.5402,58.7942,112.5398c17.4084,39.1265,33.5959,79.1261,51.9078,118.4207
		c10.5469,22.6548,21.9035,45.054,34.5252,66.7467c0.3657,50.0221,13.9337,99.701,38.8905,142.688
		c25.9875,44.7517,64.2106,82.0809,109.2159,106.9128c11.5114,6.3989,24.1885,12.1041,37.5907,11.9821
		c6.7084-0.0731,13.47-1.7258,19.1902-5.2539c5.7257-3.5325,10.2943-9.0381,12.1948-15.47c0,0,0,0,0-0.0001
		c2.1666-7.3812,0.5369-15.6884-4.0985-21.6982c-3.0209-4.5985-8.8136-12.375-14.829-14.8303
		c-8.7289-3.5629-16.1046-0.5717-17.3149,8.4038c-1.21,8.9758,3.6978,20.5547,10.0067,22.8372
		c6.309,2.2814,10.3217-3.7285,9.0624-9.5975c-1.0284-4.7931-7.6377-10.8839-3.1635-14.3802
		c3.5321-2.7606,12.9541,5.7362,16.7653,9.4365c3.5482,5.7692,4.5057,13.1102,2.4535,19.4854
		c-1.9424,6.073-6.4471,11.182-11.9307,14.3965c-5.4911,3.2198-11.9598,4.6047-18.3369,4.5317
		c-12.7694-0.1217-24.8083-6.0221-36.0551-12.547c-43.8826-25.6445-80.4841-63.3337-104.7394-107.5975
		c-20.4314-37.2761-32.1007-79.2043-34.1017-121.4297c6.2252,9.9088,12.7504,19.6384,19.6282,29.1393
		c25.4364,35.1659,56.0924,67.0851,92.5225,91.0852c32.2775,21.3229,69.876,36.2246,108.8805,37.0712
		c19.5101,0.3949,39.1648-2.8585,57.2792-10.2129c6.5071-2.6423,12.7988-5.8293,18.7738-9.5203
		c34.8042-8.9675,68.0476-27.1425,90.2928-54.4789c9.9583-12.2278,18.1919-25.9351,23.5267-40.7289
		c5.3376-14.7969,7.6892-30.7013,6.0764-46.2209c-0.8091-7.7687-10.035-32.1021-12.7482-39.3766
		c-10.1626,9.3296-8.0905,34.7415,11.6566,39.465c0.8768,15.3914-2.1986,30.8212-8.0458,44.9492
		c-5.8496,14.1313-14.4637,26.9932-24.6277,38.3629c-19.0691,21.314-43.8405,39.5398-70.6949,49.2959
		c17.0537-8.9978,32.3954-20.5201,44.0114-34.8048c9.9495-12.2262,18.1841-25.9233,23.526-40.7085
		c5.3446-14.7886,7.7097-30.687,6.1053-46.2045c-0.8046-7.7682-2.5958-15.4099-5.307-22.6863
		c-14.6857,9.1095-5.6411,32.4343,1.4631,39.4695c0.8821,15.3922,0.5797,14.1266-5.2649,28.2589
		c-5.8466,14.1361-14.4557,27.0059-24.609,38.3922c-8.9335,10.0106-19.4564,19.1687-30.9523,27.0728
		c1.3533-1.4536,2.6703-2.9418,3.9446-4.4677c13.0209-15.5908,21.5906-34.9445,23.546-55.1307
		c1.2423-12.8711-0.3081-26.0062-4.5455-38.1626c-0.8326-2.7632-1.8079-5.4832-2.9325-8.144l0,0
		c-6.1003-14.4321-16.5851-27.0541-29.9336-35.2172c-13.3488-8.1613-29.5433-11.7216-44.9802-9.3718
		c-0.0431,0.0066-0.0859,0.0156-0.129,0.0223c-13.6785,1.3435-26.9204,6.6862-37.2677,15.6136
		c-11.4049,9.855-19.0632,23.8271-21.3193,38.6078c-1.6466,5.4745-2.7026,11.2152-2.6608,16.8892
		c0.1819,24.5498,11.1399,43.9382,28.2134,45.2009c17.0735,1.2628,34.212-14.7045,33.5521-32.3822s-14.5123-27.2351-24.1271-22.4832
		c-7.8519,3.8807-13.8231,23.2363-23.4984,11.8561c-6.8751-8.0857-0.9391-31.2098,3.0742-43.9225
		c2.7161-4.3335,5.9426-8.3431,9.6226-11.8867c3.2427-3.1229,6.8339-5.8739,10.6681-8.2281
		c12.9441-6.288,28.0475-8.1927,42.0829-5.3704c18.7982,3.7659,35.6503,15.7766,46.0862,31.7196
		c10.4556,15.9537,14.6147,35.7815,12.4066,54.6532c-2.2028,18.8906-10.705,36.8915-23.1644,51.2192
		c-12.0121,13.8165-27.7251,24.3008-44.8237,30.8491c0,0,0,0.0001,0,0.0001c-7.0337,2.6942-14.3134,4.7145-21.72,6.1206
		c-0.3152,0.0492-0.6309,0.1064-0.946,0.1533l-0.0027,0.0043l-0.0085,0.0262c-10.3036,1.8787-20.8456,2.5604-31.3208,2.1388
		c-36.6908-1.4203-72.0261-16.5348-102.5865-37.4755c-34.4822-23.6964-63.2893-55.1366-87.2681-89.6895
		c-2.6781-3.8623-5.2949-7.7665-7.8604-11.705c-17.8676-30.4318-32.2627-62.8911-44.8132-95.9822
		c-4.3781-11.548-8.5521-23.1761-12.6188-34.8507c15.2252,22.3295,32.5013,38.3031,58.1423,49.641
		c28.9824,12.8052,61.7202,16.554,92.6674,10.7219c30.969-5.8994,59.0743-20.7014,85.5629-36.6608
		c26.5038-15.9213,52.1204-33.2273,80.3491-45.094c17.8319-7.4615,37.2333-12.8218,56.1389-9.5825
		c9.45,1.6082,18.6313,5.3777,26.026,11.4913c7.3896,6.1085,12.9552,14.6324,14.8513,24.0729
		c1.3258,6.5829,0.8651,13.5427-1.3374,19.9257c-0.1818,0.5267-0.3795,1.0477-0.5846,1.5659
		c0.0132-0.1234,0.0198-0.1952,0.0198-0.1952l-0.0004,0.0013c0,0-6.7299,15.2435-12.6425,14.5817
		c-5.9127-0.6619-2.3414-7.337-3.5498-10.99c-1.4795-4.4731-8.101-7.0205-13.1304-3.0502
		c-5.0289,3.97-4.4438,13.7241,0.8387,19.3628c5.283,5.6377,13.7583,4.8429,20.5306-0.9264
		c5.3646-4.5702,7.2196-13.8032,7.7595-17.4465c0.4172-0.9065,0.8035-1.8276,1.1484-2.7651
		c2.3569-6.4073,2.9779-13.464,1.759-20.2194c-1.7517-9.6876-7.2515-18.5579-14.7488-25.0029
		c-7.4951-6.4425-16.8651-10.541-26.5842-12.3864c-19.4297-3.6659-39.4833,1.321-57.7051,8.603
		c-1.526,0.6068-3.0431,1.2322-4.5548,1.8684l67.0184-49.1582l-71.0646,47.6842c2.2681-2.4423,4.2981-5.0829,6.0143-7.9603
		c8.5532-14.3627,12.3207-31.2931,10.7634-47.6821c-1.5651-16.389-8.4369-32.05-19.213-44.1594
		c-10.7795-12.1058-25.3708-20.5555-40.9733-23.8993c-9.1388-1.9574-14.3414-2.8044-23.4849-1.3337
		c9.2045-1.0189,14.2994,0.3018,23.1659,2.6621c15.1324,4.0276,28.8092,12.9634,38.472,24.9619
		c9.6672,11.9956,15.3311,27.0613,16.0194,42.198c0.6963,15.1364-3.5764,30.4032-11.8301,42.8076
		c-5.3557,8.0615-11.1322,17.7734-18.2917,24.9719c-18.3281,9.5548-35.9392,20.4911-53.749,30.7186
		c-26.6719,15.2698-54.4851,29.2698-84.2134,34.1946c-29.6406,4.9733-60.7435,0.7147-87.8026-11.9132
		c-24.9121-11.6162-51.0729-32.9165-66.8052-56.1764c-7.293-21.3835-14.3559-42.8767-21.7653-64.2773h-0.0001
		c-0.6983-2.0178-1.4017-4.0348-2.107-6.0514c14.8823,16.3879,33.504,29.3564,54.1749,37.0975
		c17.3844,6.5504,36.5868,9.4805,54.9954,5.7924c9.205-1.8607,18.0981-5.4244,25.8807-10.7231
		c7.7863-5.3015,14.3892-12.3732,18.868-20.6648c4.7709-8.8633,7.0072-18.9545,6.6812-28.9143
		c-0.328-9.9573-3.1704-19.7334-7.9706-28.3628c-9.6165-17.2461-26.8168-29.4663-45.5868-34.6416
		c-18.1708-5.0157-37.9343-3.7094-55.153,3.5439c24.9246,30.6982,39.3799,4.1438,54.7516-2.1588
		c18.2871,5.5665,34.7036,17.9408,43.4089,34.6482c4.3652,8.3555,6.8168,17.7058,6.8752,27.045
		c0.0598,9.3357-2.274,18.6849-6.8707,26.6957c-4.293,7.5101-10.5645,13.8512-17.8351,18.5476
		c-7.2744,4.6996-15.5845,7.7599-24.1364,9.2742c-17.1003,3.0607-34.9915-0.2684-51.3-6.8007
		c-3.7214-1.4999-7.3644-3.1844-10.9194-5.0364c4.6959,1.2867,9.5099,2.1093,14.3573,2.4316
		c15.9326,1.0465,31.958-3.3009,45.0051-12.0432c5.1049-3.4105,9.8043-7.5449,13.6123-12.4526
		c3.813-4.9115,6.6517-10.6332,7.9363-16.7482c1.2863-6.1244,0.8997-12.6121-1.3998-18.4197
		c-2.3068-5.8173-6.6112-10.8164-12.1199-13.6732c-3.7711-1.9453-8.0298-2.8418-12.2097-2.6001
		c-4.1801,0.2429-8.2502,1.6227-11.6779,3.9285c-3.4272,2.3062-6.192,5.5253-7.9432,9.2043
		c-1.751,3.6793-2.4814,7.8042-2.1198,11.8064c-0.1564-4.0154,0.7863-8.0415,2.6703-11.5272
		c1.8834-3.486,4.7076-6.4315,8.0564-8.443c3.348-2.012,7.2264-3.0939,11.0762-3.1187c3.8499-0.0261,7.686,1.0039,10.9631,2.9153
		c4.7942,2.7808,8.3696,7.4839,10.1438,12.6787c1.7822,5.2059,1.7832,10.9633,0.3992,16.2778
		c-1.3855,5.3248-4.1946,10.2509-7.7908,14.4548c-3.6023,4.2086-8.0457,7.6968-12.8563,10.5875
		c-12.2938,7.3627-27.0194,10.4758-40.9913,8.8219c-16.1174-4.146-26.7936-5.5237-33.6686-5.8666
		c-8.4031-6.3828-16.0528-13.7601-22.7422-21.8875c-4.7523-5.7823-9.54-11.6479-13.9445-17.7142
		c-10.0417-26.9977-21.1066-53.6586-34.3182-79.3632c-23.8068-46.2833-54.7977-88.756-91.1705-126.0424
		c-36.3278,37.3303-67.2674,79.8403-91.0184,126.1523c-13.1806,25.7205-24.2133,52.3948-34.2225,79.4045
		c-4.3972,6.0715-9.1779,11.9429-13.9232,17.731c-6.6796,8.1354-14.3204,15.522-22.7158,21.9148
		c-6.8746,0.3513-17.5491,1.7418-33.6616,5.9072c-13.9699,1.6708-28.6993-1.4246-41.002-8.7725
		c-4.8141-2.885-9.2617-6.3677-12.869-10.572c-3.6013-4.1996-6.4163-9.1223-7.8082-14.4453
		c-1.3904-5.313-1.3964-11.0703,0.3795-16.2784c1.7679-5.1969,5.3378-9.9043,10.1286-12.6909
		c3.2747-1.9153,7.1097-2.95,10.9595-2.9285c3.8499,0.0201,7.7295,1.0974,11.0799,3.1052c3.3513,2.0076,6.179,4.9497,8.0667,8.4333
		c1.8882,3.4834,2.8356,7.5084,2.6841,11.5239c0.3569-4.0026-0.3786-8.1266-2.134-11.8038
		c-1.7557-3.6769-4.5243-6.8926-7.9543-9.1947c-3.4305-2.3016-7.5023-3.6765-11.6826-3.9144
		c-4.1804-0.2367-8.4378,0.665-12.2067,2.6149c-5.5052,2.8634-9.8036,7.8678-12.1033,13.6877
		c-2.2924,5.8105-2.6713,12.2987-1.3776,18.4214c1.2919,6.1134,4.1376,11.8317,7.9565,16.7386
		c3.8138,4.9032,8.5183,9.0319,13.6273,12.4362c13.0577,8.7266,29.0883,13.0547,45.0196,11.9889
		c4.8471-0.3281,9.66-1.1565,14.3543-2.4489c-3.5527,1.8562-7.1936,3.5452-10.9133,5.0494
		c-16.3006,6.5519-34.1877,9.9026-51.2917,6.8625c-8.5537-1.5039-16.8674-4.5542-24.1476-9.245
		c-7.2762-4.6876-13.5554-11.0211-17.8573-18.5261c-4.6064-8.0051-6.9515-17.3517-6.903-26.6874
		c0.0472-9.3392,2.4874-18.6926,6.8426-27.0533c8.6852-16.7178,25.0868-29.1118,43.3671-34.7004
		c15.3793,6.2841,29.8667,32.821,54.7542,2.0928c-17.2274-7.2325-36.9924-8.5151-55.1572-3.4774
		c-18.7637,5.1979-35.9493,17.4388-45.545,34.6965c-4.7898,8.6353-7.6204,18.4148-7.9363,28.3723
		c-0.314,9.9602,1.9343,20.0488,6.716,28.9063c4.4888,8.2863,11.1002,15.35,18.8929,20.6421
		c7.7889,5.2893,16.6865,8.8423,25.8937,10.6919c18.413,3.6659,37.6118,0.7128,54.9883-5.8586
		c20.6616-7.766,39.2676-20.757,54.1301-37.1628c-0.7028,2.0175-1.4038,4.0353-2.0997,6.054h-0.0001
		c-7.3837,21.4095-14.4206,42.9113-21.6878,64.3035c-15.7043,23.2788-41.8393,44.6107-66.7374,56.257
		c-27.0438,12.6605-58.1416,16.9567-87.7882,12.0192c-29.7343-4.889-57.5643-18.8555-84.2546-34.0931
		c-17.8221-10.2061-35.4463-21.1211-53.786-30.6538c-7.1683-7.1898-12.9565-16.8948-18.3219-24.9498
		c-8.2686-12.3944-12.5596-27.6561-11.8817-42.7932c0.6701-15.1376,6.3157-30.2101,15.9685-42.2174
		c9.6483-12.0101,23.3144-20.9624,38.442-25.0082c8.8636-2.3711,13.9569-3.6979,23.1627-2.6901
		c-9.1453-1.4597-14.3469-0.6064-23.4832,1.3619c-15.5984,3.3627-30.1796,11.83-40.9445,23.9489
		c-10.7614,12.1223-17.6144,27.7915-19.1597,44.1824c-1.5375,16.3911,2.2504,33.3169,10.8209,47.6692
		c1.7196,2.8754,3.7529,5.5137,6.0239,7.9531l-71.122-47.5984l67.0777,49.0773c-1.5125-0.6344-3.0303-1.2579-4.5571-1.8629
		c-18.2307-7.26-38.2902-12.2228-57.7155-8.5334c-9.7169,1.8571-19.0819,5.9669-26.5692,12.4183
		c-7.4896,6.4542-12.9786,15.3311-14.7186,25.0208c-1.2107,6.7568-0.5813,13.8127,1.7834,20.2173
		c0.3461,0.937,0.7335,1.8577,1.1517,2.7637c0.5443,3.6427,2.4105,12.8735,7.7806,17.4373
		c6.7793,5.7611,15.2556,6.5457,20.5318,0.9015c5.2758-5.6449,5.8491-15.3998,0.8153-19.3638
		c-5.0342-3.9642-11.6525-1.4089-13.1267,3.066c-1.2039,3.6544,2.3754,10.3253-3.5365,10.9944
		c-5.9118,0.6688-12.66-14.5665-12.66-14.5665l-0.0005-0.0013c0,0,0.0067,0.0718,0.0201,0.1952
		c-0.2057-0.5179-0.4041-1.0387-0.5865-1.5652c-2.2103-6.3804-2.6794-13.3396-1.3615-19.9241
		c1.8847-9.4427,7.44-17.9734,14.8222-24.0908c7.3873-6.1226,16.5642-9.9031,26.0121-11.5227
		c18.9017-3.262,38.3096,2.0748,56.1505,9.5148c28.2431,11.8328,53.8805,29.1079,80.4035,44.9972
		c26.5076,15.9274,54.6309,30.6954,85.607,36.5575c30.9541,5.7947,63.6874,2.0065,92.6543-10.8337
		c25.6274-11.3688,42.8842-27.3632,58.0824-49.7109c-4.0526,11.6794-8.2126,23.3126-12.5767,34.8658
		c-12.5107,33.1062-26.8666,65.5829-44.6974,96.0361c-2.5607,3.9417-5.1728,7.8489-7.8463,11.7145
		c-23.937,34.5818-52.7062,66.0566-87.1599,89.7946c-30.5351,20.9775-65.8522,36.1348-102.5413,37.5992
		c-10.4746,0.4343-21.0175-0.2347-31.3234-2.1011l-0.0085-0.0261l-0.0027-0.0044c-0.3152-0.0464-0.631-0.1033-0.9463-0.1521
		c-7.4083-1.3972-14.6903-3.4087-21.7273-6.0945c0,0,0,0-0.0001-0.0001c-17.1064-6.5277-32.8321-16.993-44.8609-30.795
		c-12.4767-14.3127-21.0005-32.3032-23.2261-51.1913c-2.231-18.869,1.9044-38.7018,12.3406-54.6681
		c10.4168-15.9556,27.2543-27.9866,46.0479-31.7751c14.0321-2.8392,29.1378-0.9528,42.0894,5.3196
		c3.8369,2.3497,7.4315,5.0963,10.6779,8.2153c3.6841,3.5392,6.9156,7.5448,9.6369,11.8751
		c4.0286,12.7078,9.9926,35.8247,3.1272,43.9187c-9.6617,11.3918-15.6561-7.9564-23.5127-11.8276
		c-9.6205-4.7405-23.4613,4.8336-24.0999,22.5121c-0.6386,17.6786,16.5192,33.6251,33.5912,32.3418
		c17.0719-1.2833,28.0066-20.6849,28.1588-45.235c0.035-5.674-1.028-11.4133-2.6811-16.8859
		c-2.274-14.778-9.9491-28.7408-21.3659-38.582c-10.3581-8.915-23.6065-14.2417-37.2865-15.5687
		c-0.0432-0.0066-0.0859-0.0156-0.1291-0.0221c-15.4397-2.3312-31.63,1.2485-44.9689,9.4259
		c-13.3387,8.1792-23.8081,20.8137-29.891,35.2533h-0.0001c-1.1214,2.6622-2.0933,5.3834-2.9227,8.1475
		c-4.2227,12.1616-5.7573,25.2986-4.4995,38.1682c1.9798,20.1838,10.5729,39.5271,23.6125,55.1023
		c1.2762,1.5243,2.595,3.0109,3.95,4.4628c-11.5054-7.8901-22.0394-17.0355-30.9849-27.0353
		c-10.167-11.3741-18.7917-24.2335-24.6553-38.3625c-5.8616-14.1252-6.1624-12.8594-5.2989-28.2526
		c7.0958-7.0437,16.1122-30.3795,1.4156-39.4712c-2.7024,7.2797-4.4845,14.9235-5.2796,22.6927
		c-1.5857,15.5193,0.7986,31.4148,6.161,46.1969c5.3597,14.7788,13.6109,28.4659,23.5751,40.6802
		c11.6332,14.2706,26.9887,25.7744,44.0533,34.7517c-26.8662-9.7236-51.6596-27.9197-70.7543-49.2107
		c-10.1777-11.3574-18.8073-24.2087-24.674-38.3331c-5.8641-14.121-8.9582-29.5471-8.1-44.9396
		c19.7414-4.7473,21.7829-30.1615,11.609-39.4789c-2.7044,7.2778-11.901,31.6223-12.7007,39.3918
		c-1.5941,15.5216,0.7767,31.4232,6.1322,46.2137c5.3527,14.7872,13.6028,28.4846,23.5758,40.7004
		c22.2781,27.3094,55.5434,45.4443,90.3584,54.3699c5.9794,3.6837,12.275,6.8632,18.7852,9.4977
		c18.1234,7.3325,37.7819,10.5623,57.2915,10.1438c39.0034-0.8936,76.584-15.8407,108.8358-37.2024
		c36.4011-24.0442,67.0185-56.0001,92.4125-91.1968c6.8663-9.509,13.3797-19.2466,19.593-29.163
		c-1.95,42.2278-13.5688,84.17-33.9553,121.4708c-24.2018,44.293-60.7579,82.0262-104.6095,107.7238
		c-11.2388,6.5383-23.2706,12.4532-36.0399,12.5905c-6.377,0.0807-12.8474-1.2965-18.3424-4.5096
		c-5.4873-3.2079-9.9983-8.3114-11.948-14.3821c-2.0599-6.3727-1.1112-13.7148,2.4301-19.4883
		c3.8067-3.705,13.2184-12.2131,16.7538-9.4568c4.4785,3.491-2.1235,9.5897-3.1461,14.384
		c-1.2522,5.8706,2.7677,11.8756,9.0739,9.5865c6.3062-2.2899,11.2-13.8748,9.9791-22.8491
		c-1.2211-8.974-8.6005-11.9563-17.325-8.3829c-6.0124,2.4625-11.7957,10.2461-14.8111,14.8483
		c-4.6281,6.0154-6.2478,14.3245-4.0724,21.7031c0,0,0,0,0,0c1.9083,6.4298,6.4836,11.9298,12.2135,15.4553
		c5.7244,3.5212,12.4881,5.1658,19.1966,5.2308c13.4023,0.106,26.0725-5.6146,37.5762-12.0273
		c44.9754-24.8862,83.1533-62.2615,109.0869-107.0446c24.905-43.017,38.4131-92.7123,38.7185-142.7347
		c12.5955-21.7079,23.925-44.1208,34.4446-66.7883c18.2646-39.3165,34.4037-79.3357,51.765-118.4832
		c17.3267-39.0205,35.882-77.3079,58.6585-112.6106C838.6288,1012.6629,852.5137,994.1192,867.5671,976.5819z"/>
	<path d="M1342.2168,209.9538c3.9371-11.7401-3.3658-31.3781-42.3547-43.2146c9.5201,42.8825,27.7489,57.2178,37.8107,48.2169
		c-14.5297-8.5797-16.3285-19.8507-15.412-28.1977C1328.3844,192.3046,1327.2998,204.9007,1342.2168,209.9538z"/>
	<path d="M99.8012,717.3237c-12.1358,2.4604-25.4913,18.6039-16.2476,58.2876c32.3772-29.686,35.6776-52.6402,22.8517-56.8534
		c-0.1654,16.8729-9.027,24.0662-16.7139,27.4459C91.4328,738.1276,102.8836,732.7688,99.8012,717.3237z"/>
	<path d="M1160.4043,1539.6022c8.1986,9.2798,28.8572,12.7742,58.6023-15.073c-41.8975-13.1964-63.4266-4.5775-60.6624,8.6366
		c14.6951-8.2932,25.3555-4.2155,32.1259,0.7517C1182.6051,1536.4475,1172.2389,1529.2102,1160.4043,1539.6022z"/>
	<path d="M1635.0199,716.3981c12.1387,2.4457,25.5137,18.5732,16.3177,58.2679c-32.413-29.6469-35.7411-52.5972-22.9203-56.8258
		c0.1858,16.8727,9.056,24.0553,16.7471,27.4258C1643.4133,737.1918,1631.9561,731.8469,1635.0199,716.3981z"/>
	<path d="M391.9933,210.5267c-3.9513-11.7353,3.328-31.3821,42.3026-43.2656c-9.4685,42.8939-27.6799,57.2513-37.7524,48.2625
		c14.5193-8.5972,16.3045-19.8704,15.3779-28.2162C405.8045,192.8609,406.9042,205.4557,391.9933,210.5267z"/>
	<path d="M575.4092,1539.955c-8.1875,9.2896-28.8417,12.809-58.6205-15.0023c41.8815-13.2471,63.421-4.6541,60.6727,8.5634
		c-14.7051-8.2755-25.3605-4.1849-32.1249,0.7904C553.2045,1536.827,563.562,1529.5773,575.4092,1539.955z"/>
	<polygon points="1299.8611,166.7388 1299.8621,166.7392 1299.8621,166.7391 	"/>
	<polygon points="83.5538,775.6124 83.5537,775.6113 83.5536,775.6114 	"/>
	<polygon points="1219.0074,1524.5286 1219.0066,1524.5292 1219.0067,1524.5293 	"/>
	<polygon points="1651.3375,774.6671 1651.3376,774.666 1651.3378,774.6661 	"/>
	<polygon points="434.2969,167.2607 434.2959,167.2611 434.2959,167.261 	"/>
	<polygon points="516.7878,1524.952 516.7887,1524.9526 516.7886,1524.9528 	"/>
	<path d="M1358.1031,217.2912c6.9825-15.3616,17.9978-18.3509,26.3945-18.3286c-4.8622,6.6797-17.5026,6.9434-20.9365,22.3151
		c12.0928,2.6636,30.8418-6.6899,38.4554-46.7199v0C1360.3925,188.5939,1348.0814,208.2458,1358.1031,217.2912z"/>
	<path d="M98.2124,699.897c-16.7948,1.6338-24.8913-6.4111-29.0703-13.694c8.2159,0.8709,14.7644,11.686,29.7937,6.974
		c-3.7396-11.8045-21.2145-23.3647-59.6884-9.9434h0C72.2152,712.2631,95.3898,713.0989,98.2124,699.897z"/>
	<path d="M1146.1067,1549.6915c9.8124,13.7279,6.8936,24.762,2.6759,32.0226c-3.3538-7.5505,2.7382-18.6293-8.8572-29.2891
		c-8.3531,9.1409-9.6272,30.0547,21.2329,56.6635v-0.0001C1169.8146,1566.0227,1158.9512,1545.535,1146.1067,1549.6915z"/>
	<path d="M1636.5876,698.9695c16.7968,1.6135,24.8835-6.4411,29.0538-13.729c-8.2148,0.8808-14.7504,11.7038-29.7853,7.0099
		c3.7253-11.809,21.1863-23.3903,59.6764-10.0154v0.0001C1662.5997,711.3042,1639.4261,712.1678,1636.5876,698.9695z"/>
	<path d="M376.1158,217.8832c-7.001-15.3532-18.0199-18.3292-26.4166-18.2968c4.8702,6.6738,17.511,6.9223,20.9633,22.2898
		c-12.0895,2.6782-30.8498-6.6527-38.5118-46.6735l0.0001,0C373.7919,189.1888,386.1267,208.8258,376.1158,217.8832z"/>
	<path d="M589.7188,1550.027c-9.7957,13.7397-6.8636,24.7704-2.6372,32.0259c3.3446-7.5547-2.7606-18.6261,8.8219-29.2997
		c8.3641,9.1307,9.6635,30.043-21.1646,56.6888l0,0C566.0306,1566.3867,576.8694,1545.886,589.7188,1550.027z"/>
</g>
</svg>
